<?xml version="1.0" encoding="UTF-8"?>
<svg width="250px" height="250px" viewBox="0 0 250 250" version="1.1" xmlns="http://www.w3.org/2000/svg" xmlns:xlink="http://www.w3.org/1999/xlink">
    <!-- Generator: Sketch 55.2 (78181) - https://sketchapp.com -->
    <title>bacon</title>
    <desc>Created with Sketch.</desc>
    <g id="bacon" stroke="none" stroke-width="1" fill="none" fill-rule="evenodd">
        <rect id="Rectangle" stroke="#212121" stroke-width="8" x="17" y="19" width="217" height="217" rx="40"></rect>
        <g id="rice" transform="translate(46.000000, 35.000000)" fill="#212121" fill-rule="nonzero">
            <path d="M79.0243902,175.609756 C37.8051219,175.609756 4.3902439,142.194878 4.3902439,100.97561 C4.3902439,65.6992684 28.8658537,36.1434146 61.7604877,28.3521951 L58.7619511,39.5407317 C57.8217073,43.0514633 59.9070732,46.6631708 63.4192683,47.6041463 L90.3987806,54.8334147 L89.4936585,58.2109755 C88.5534146,61.7209755 90.6387805,65.3334146 94.1509756,66.2743903 L128.076585,75.3643903 C131.585122,76.3046341 135.200488,74.2207318 136.141463,70.7099999 L139.683659,57.4895123 C148.477317,69.7346341 153.658537,84.7492683 153.658537,100.97561 C153.658537,142.194878 120.243659,175.609756 79.0243902,175.609756 L79.0243902,175.609756 Z M63.0029268,40.6770732 L66.564878,27.3826829 L67.8073171,22.7473171 L68.6846342,19.4721952 C68.7080487,19.3858536 68.7065854,19.3865854 69.310244,19.0968293 C69.3109756,19.0968293 69.3109756,19.0968293 69.3117072,19.0960975 C70.9756097,18.297805 71.8280489,17.5792682 72.2787805,15.8978048 C72.7287805,14.2192684 72.3519511,13.1721952 71.3143903,11.6421952 C71.3136585,11.6414633 71.3136585,11.6414633 71.3129268,11.6407317 C70.9346342,11.0831707 70.9339024,11.0795121 70.9573171,10.9909756 L72.0936586,6.75 C72.4068292,5.58146349 73.6141463,4.88487798 74.7819511,5.19804878 L108.707561,14.2880488 C109.878293,14.6019512 110.573415,15.804878 110.259512,16.9763415 L109.355122,20.3517072 L106.65,19.627317 C103.141463,18.6870732 99.5253658,20.7717074 98.585122,24.2831707 L98.557317,24.3863414 L97.4487804,28.5241463 C97.4385367,28.5607317 97.434878,28.5936585 97.4253659,28.630244 C97.0214635,30.2429268 97.3982926,31.2812194 98.4117073,32.7753659 L98.4131708,32.7768293 C98.7929269,33.3365854 98.7943902,33.3402438 98.7695122,33.4309757 C98.7460975,33.5187806 98.7468293,33.5187806 98.1431708,33.8085367 C98.142439,33.8085367 98.142439,33.8085367 98.1417073,33.8092683 C96.4778049,34.6082927 95.6260976,35.3253659 95.1760976,37.0053659 L91.5351219,50.5931707 L64.5556098,43.3639025 C63.3856098,43.0500001 62.6897562,41.8456098 63.0029268,40.6770732 L63.0029268,40.6770732 Z M139.439268,32.957561 C140.61,33.2714634 141.305122,34.4751219 140.991219,35.6458537 L139.854878,39.8868293 C139.830732,39.9768293 139.826342,39.9804877 139.218293,40.2753659 C139.217561,40.2760976 139.217561,40.2760976 139.216829,40.2760976 C137.55439,41.0831708 136.706341,41.8002438 136.257073,43.4758537 C135.872927,44.91 136.097561,45.8853658 136.819756,47.0890245 C136.941951,47.2939024 137.075122,47.5031707 137.225854,47.724878 C137.226585,47.7256098 137.226585,47.7256098 137.227317,47.7263415 C137.60561,48.2809757 137.60561,48.2809757 137.582195,48.3680487 L136.305366,53.1343903 L131.900488,69.5736586 C131.588049,70.7407316 130.380732,71.4365853 129.212195,71.1234147 L95.2873171,62.0334147 C94.1173171,61.7202439 93.4214635,60.515122 93.7346341,59.3465854 L94.6397562,55.969756 L95.7760975,51.7295123 L99.4163415,38.1417074 C99.439756,38.0560976 99.4382928,38.0568293 100.041951,37.7670732 C100.042683,37.7663415 100.042683,37.7663415 100.043415,37.7663415 C101.707317,36.9673171 102.559756,36.2487804 103.010488,34.567317 C103.460488,32.8887806 103.083658,31.8417074 102.046098,30.312439 L102.044634,30.3102439 C101.894634,30.0892682 101.805366,29.9568293 101.751951,29.8704879 C101.670732,29.7387806 101.675122,29.7139024 101.689024,29.6604878 L102.780732,25.5870731 L102.825366,25.4195122 C103.138537,24.2509757 104.345854,23.5543902 105.513658,23.867561 L105.834146,23.9531707 L110.887317,25.307561 L139.439268,32.957561 Z M141.126585,52.1034146 L141.823171,49.5043902 C142.273171,47.8243903 141.894878,46.7773171 140.852927,45.2517074 C140.852927,45.2502439 140.852927,45.2502439 140.852195,45.2495123 C140.474634,44.6970732 140.474634,44.6970732 140.498049,44.612195 C140.521463,44.5243902 140.525122,44.5214634 141.133171,44.2258536 C141.133902,44.2258536 141.133902,44.2258536 141.134634,44.225122 C142.797073,43.4187806 143.646585,42.7002438 144.095854,41.0231707 L145.232195,36.782195 C146.173171,33.2692683 144.088537,29.6582927 140.57561,28.717317 L113.596097,21.4880488 L114.500488,18.1126829 C115.441463,14.5990245 113.356829,10.9887805 109.843902,10.0478048 L75.9182927,0.957073171 C72.4097562,0.0168292756 68.7936585,2.10219513 67.8534146,5.61365846 L66.7170731,9.85463407 C66.2670731,11.5309756 66.6439024,12.5780488 67.68,14.1058537 C67.6807316,14.1065853 67.6807316,14.1065853 67.6814635,14.1073171 C68.0612196,14.6663414 68.0626829,14.6707316 68.0378049,14.7614635 C68.0143902,14.8492684 68.015122,14.8492684 67.4114635,15.1390245 C67.4107316,15.1390245 67.4107316,15.1390245 67.41,15.1397561 C65.7460976,15.9380489 64.8943902,16.6558537 64.4443902,18.3358537 L63.0417073,23.5690244 C27.0599999,30.9592684 0,62.8068293 0,100.97561 C0,144.619756 35.380244,180 79.0243902,180 C122.668537,180 158.04878,144.619756 158.04878,100.97561 C158.04878,82.5248781 151.724634,65.5514633 141.126585,52.1034146 L141.126585,52.1034146 Z M73.109561,151.239 C73.1102927,151.238268 73.0883415,151.238268 73.0890731,151.237537 C75.7817561,149.682659 77.3044391,148.097781 80.2122438,144.402658 C82.7871219,141.130463 84.0259025,139.844122 86.0856585,138.655098 C86.0863902,138.654366 86.0834634,138.654366 86.084195,138.654366 C88.0854146,137.499 90.2359025,136.77461 92.422244,136.402902 C93.8827317,136.154854 95.139805,136.094854 96.066878,136.138024 C96.1451708,136.141683 96.1898049,136.14461 96.1985854,136.145342 L96.3076098,136.154854 L96.4166341,136.15339 C99.3017562,136.116805 100.83761,133.484122 99.3873659,130.972171 L95.9139511,125.268512 C94.9480975,123.595097 92.927122,122.355585 90.7320001,122.272902 L90.7320001,122.266317 C90.7320001,122.260463 90.7400487,122.253878 90.6010244,122.247293 C89.3776098,122.190219 87.9002928,122.264854 86.1076098,122.569244 C83.4346829,123.023634 80.8363903,123.91339 78.3537074,125.346805 C78.3529755,125.347537 78.3749268,125.347537 78.3741951,125.347537 C75.6815121,126.902415 74.1588293,128.487293 71.251756,132.182415 C68.6761463,135.455341 67.4373659,136.740951 65.3783415,137.930707 C65.3776097,137.930707 65.3798048,137.930707 65.3790732,137.931439 C63.3778536,139.086073 61.2273659,139.811195 59.0410245,140.182171 C57.5805365,140.430951 56.3234635,140.49022 55.3963902,140.447781 C55.3180976,140.444122 55.2741952,140.441195 55.2646829,140.439732 L55.1556586,140.43022 L55.0466341,140.431683 C52.1622439,140.468268 50.6256585,143.100951 52.0759025,145.612903 L55.5493171,151.316561 C56.5151707,152.989976 58.536878,154.230219 60.732,154.312171 L60.732,154.318756 C60.732,154.32461 60.7232195,154.331927 60.8622438,154.338512 C62.0856586,154.394854 63.5637073,154.320219 65.3556585,154.015829 C68.029317,153.561439 70.6268781,152.671683 73.109561,151.239 Z M60.8849269,149.952659 C60.8066341,149.949 60.7620001,149.977537 60.7532196,149.976805 L60.6639512,150.000219 L60.5746829,150.000219 C60.1429757,150.000219 59.3871219,149.526805 59.1712683,149.152902 L56.6937072,144.845341 C57.6163903,144.811683 58.6451707,144.710707 59.7778536,144.518268 C62.4515121,144.06461 65.094439,143.170463 67.5771219,141.73778 C67.5778537,141.737049 67.5778537,141.734854 67.5785854,141.734122 C70.272,140.179244 71.8049268,138.593634 74.7127317,134.898512 C77.2876098,131.626317 78.5322439,130.339244 80.5919999,129.15022 C80.5927318,129.15022 80.5927318,129.149488 80.5934634,129.149488 C82.594683,127.994122 84.7466341,127.269 86.9329756,126.898024 C88.3934633,126.649976 89.6512682,126.589976 90.5783415,126.632415 C90.6566341,126.636073 90.7012684,126.608268 90.7107805,126.609 L90.799317,126.585585 L90.8885854,126.585585 C91.3202928,126.585585 92.0761463,127.058268 92.2919999,127.432171 L94.7702926,131.739732 C93.8468781,131.77339 92.8180976,131.882415 91.6854146,132.074854 C89.0124877,132.529244 86.3695609,133.419 83.886878,134.851683 C83.8854147,134.852415 83.8854147,134.852415 83.8846829,134.853146 C81.1920001,136.408024 79.6583415,137.992902 76.7505365,141.688024 C74.1756585,144.960219 72.9310243,146.246561 70.8712683,147.435585 C70.8705367,147.435585 70.8705367,147.435585 70.8698048,147.436317 C68.8685854,148.591683 66.7166341,149.316073 64.5302926,149.68778 C63.0698049,149.935829 61.812,149.995829 60.8849269,149.952659 Z M109.084756,140.634146 C108.118903,138.960732 106.097195,137.72122 103.902073,137.638537 L103.902073,137.632683 C103.902073,137.626097 103.910854,137.619512 103.771829,137.612927 C102.548415,137.556585 101.070366,137.630488 99.2784146,137.93561 C96.604756,138.389268 94.0071951,139.279756 91.5245122,140.712439 C91.5237806,140.713171 91.5457318,140.713171 91.5449999,140.713902 C88.8523171,142.268049 87.3296341,143.853658 84.4218292,147.548781 C81.8469511,150.820976 80.6081707,152.107317 78.5491463,153.296341 C78.5476829,153.296341 78.5506098,153.296341 78.549878,153.297073 C76.5486586,154.452439 74.3981707,155.176829 72.2118293,155.548537 C70.7513415,155.796585 69.4942683,155.856585 68.5671952,155.813415 C68.4889024,155.809756 68.4442684,155.806829 68.4354879,155.806097 L68.3264634,155.796585 L68.217439,155.798049 C65.3323171,155.834634 63.7964633,158.466585 65.2467073,160.978537 L68.7201219,166.682195 C69.6859755,168.356342 71.7069512,169.595854 73.9020732,169.678537 L73.9020732,169.68439 C73.9020732,169.690976 73.8940243,169.697561 74.0330489,169.704146 C75.2564634,169.760488 76.7345121,169.686585 78.5264635,169.381463 C81.1993902,168.927805 83.7976829,168.037317 86.2803659,166.604634 C86.2810975,166.603902 86.2591463,166.603902 86.2598781,166.603171 C88.9525609,165.048293 90.4752439,163.463415 93.382317,159.768293 C95.9579269,156.496098 97.1967073,155.209756 99.2557317,154.020732 C99.2571952,154.020732 99.2542682,154.020732 99.2550001,154.02 C101.256219,152.864634 103.406707,152.140244 105.593049,151.768537 C107.053537,151.520488 108.31061,151.460488 109.237683,151.503658 C109.315976,151.507317 109.36061,151.510244 109.36939,151.510976 L109.478415,151.520488 L109.587439,151.519024 C112.472561,151.482439 114.008415,148.850488 112.558171,146.338537 L109.084756,140.634146 Z M104.856219,147.440488 C102.182561,147.894878 99.5403659,148.784634 97.0569511,150.217317 L97.0554879,150.21878 C94.3628049,151.773658 92.8291463,153.358537 89.9213415,157.053659 C87.3464635,160.325854 86.1018293,161.612195 84.0420731,162.80122 L84.0406098,162.801951 C82.0393902,163.957317 79.8874391,164.681707 77.7010976,165.053415 C76.2406097,165.301463 74.9828048,165.361463 74.0557317,165.318293 C73.977439,165.314634 73.9328049,165.343171 73.9232928,165.342439 L73.834756,165.365854 L73.7454879,165.365854 C73.3137805,165.365854 72.5579269,164.892439 72.3420731,164.519268 L69.8637804,160.210976 C70.7871951,160.177317 71.8159757,160.077073 72.9486586,159.884634 C75.6215853,159.430244 78.2645121,158.536098 80.747195,157.103415 C80.7486585,157.102683 80.7486585,157.100488 80.7493902,157.100488 C83.4420732,155.54561 84.9757318,153.959268 87.8835365,150.264146 C90.4584146,146.991951 91.7030487,145.70561 93.762805,144.515854 C93.7635366,144.515854 93.7635366,144.515122 93.7642682,144.515122 C95.7654878,143.359756 97.917439,142.635366 100.10378,142.263659 C101.564268,142.01561 102.822073,141.95561 103.749146,141.99878 C103.827439,142.002439 103.872073,141.973902 103.881585,141.974634 L103.970122,141.95122 L104.05939,141.95122 C104.491098,141.95122 105.246951,142.424634 105.462805,142.797805 L107.941098,147.106098 C107.017683,147.139756 105.988902,147.248049 104.856219,147.440488 Z M41.8717317,96.5598293 C45.4278293,100.623732 54.5924634,105.968122 59.6302683,106.843976 C65.0690489,107.790073 71.8117316,106.549097 75.9736829,103.543244 C78.6370976,101.619585 79.9468536,98.3488537 81.1073415,92.7190976 C81.2097806,92.2215365 81.3107562,91.710805 81.4366098,91.0595854 C81.4644147,90.9161708 81.6802683,89.7886098 81.7424633,89.4673903 C82.0336829,87.9688537 82.2422195,87.0095854 82.4697806,86.1747074 C82.7441708,85.1671464 82.7266098,85.2220245 83.863683,81.8781219 C84.2639268,80.7022684 84.5390487,79.8571464 84.7929512,79.0054391 C86.156122,74.4300731 86.3866098,71.108122 84.9144146,68.2983659 C83.3610001,65.3327561 80.2468537,63.7712928 75.1139269,62.4703171 C74.4941707,62.3129999 73.8700244,62.1651951 73.0351464,61.9742195 C72.8127072,61.9230001 72.0553902,61.7510487 72.0480732,61.7488536 C71.6668536,61.6625122 71.3836829,61.5973902 71.1136829,61.5337316 C70.0651464,61.2871463 69.3297806,61.0910489 68.7378293,60.8934879 C67.5751463,60.5056829 66.7570976,60.1047072 63.1907561,58.2469024 C62.8051463,58.0464147 62.4890487,57.8825122 62.1839268,57.7266585 C57.5492927,55.3515366 54.933439,54.4390975 52.5305123,55.0398293 C51.2222196,55.3661708 50.0105123,56.2339756 48.7651463,57.5503171 C47.6097805,58.7722682 46.4390489,60.3725121 45.1512439,62.3971464 C44.318561,63.7054391 41.9917318,67.6566586 41.6968536,68.0986098 C41.4824635,68.420561 41.0470975,68.8932439 40.3512438,69.5561707 C39.9495365,69.938122 38.313439,71.433 38.013439,71.713244 C35.5461219,74.0173902 34.1141707,75.7149513 33.3751463,77.6415365 C33.0049025,78.6066585 32.8527072,79.5783659 32.9602682,80.5486098 C33.4175854,84.6608049 37.6490487,91.7342194 41.8717317,96.5598293 Z M37.473439,79.215439 C37.8978293,78.1098293 39.0151464,76.785439 41.0105123,74.9217804 C41.2797804,74.6700732 42.9370975,73.1554391 43.3775854,72.7361708 C44.2936829,71.8639755 44.908317,71.1973903 45.3502684,70.5344635 C45.7278293,69.9666585 48.0883171,65.9590975 48.8551463,64.7532439 C50.006122,62.9444634 51.0297805,61.5454391 51.9553903,60.5664147 C52.6768536,59.8032439 53.2680732,59.380317 53.5951464,59.2983659 C54.5009999,59.0722683 56.6397806,59.8186098 60.1819755,61.6339756 C60.4768537,61.7847074 60.7849024,61.9442194 61.1624634,62.1410488 C65.0244146,64.1525121 65.8585609,64.5615367 67.3490487,65.0583659 C68.0953902,65.3071463 68.941244,65.5325122 70.108317,65.8069024 C69.7578293,65.7249513 73.1229513,66.4947072 74.0346585,66.7259269 C78.0070976,67.732756 80.2512439,68.858122 81.0253903,70.335439 C81.8090489,71.8310487 81.6451463,74.195195 80.5856341,77.7520245 C80.3514879,78.5386098 80.091,79.3369025 79.7075853,80.4637317 C79.6227074,80.7139756 79.3329513,81.5598292 79.3117317,81.6234877 C79.1544146,82.0844633 79.035878,82.4349512 78.9239268,82.773 C78.6356341,83.6429999 78.4146585,84.3564146 78.2339268,85.0200732 C77.9705122,85.9873902 77.7429511,87.0322682 77.4327073,88.6310489 C77.3690488,88.958122 77.1524633,90.0893415 77.1253902,90.2283658 C77.003195,90.862756 76.905878,91.3559268 76.8078292,91.8322683 C75.868317,96.3871463 74.8453902,98.9429999 73.403195,99.9842196 C70.2627074,102.251781 64.7170975,103.272512 60.3824635,102.518854 C56.3595366,101.819342 48.0853903,96.9944635 45.1753902,93.6688537 C41.5007561,89.4695854 37.6549024,83.0400732 37.3241707,80.0634879 C37.298561,79.8351952 37.3417316,79.557878 37.473439,79.215439 Z M61.4634146,94.3902439 C68.7373171,94.3902439 74.6341463,88.4934147 74.6341463,81.2195122 C74.6341463,73.9456097 68.7373171,68.0487805 61.4634146,68.0487805 C54.1895121,68.0487805 48.2926829,73.9456097 48.2926829,81.2195122 C48.2926829,88.4934147 54.1895121,94.3902439 61.4634146,94.3902439 Z M61.4634146,72.4390244 C66.312439,72.4390244 70.2439024,76.3704878 70.2439024,81.2195122 C70.2439024,86.0685366 66.312439,90 61.4634146,90 C56.6143902,90 52.6829268,86.0685366 52.6829268,81.2195122 C52.6829268,76.3704878 56.6143902,72.4390244 61.4634146,72.4390244 Z M125.251683,85.2250976 C121.695585,81.161195 112.530951,75.816805 107.493146,74.9409513 C102.054366,73.9948537 95.311683,75.2358293 91.1497318,78.2416829 C88.486317,80.1653415 87.176561,83.4360732 86.0160732,89.0658292 C85.9136341,89.5633902 85.8126585,90.074122 85.6868049,90.7253414 C85.6589999,90.8687562 85.4431463,91.996317 85.3809513,92.3175367 C85.0897317,93.8160731 84.8811951,94.7753414 84.6536341,95.6102196 C84.3792438,96.6177806 84.3968048,96.5629025 83.2597316,99.9068049 C82.8594878,101.082659 82.5843659,101.927781 82.3304634,102.779488 C80.9672927,107.354854 80.7368049,110.676805 82.2090001,113.486561 C83.7624146,116.452171 86.876561,118.013634 92.0094877,119.31461 C92.629244,119.471927 93.2533902,119.619732 94.0882682,119.810707 C94.3107074,119.861927 95.0680245,120.033878 95.0746098,120.035342 C95.456561,120.122415 95.7397318,120.188268 96.0097318,120.251195 C97.0582682,120.49778 97.7936341,120.693878 98.3855854,120.891439 C99.5482684,121.279244 100.366317,121.68022 103.932659,123.538024 C104.318268,123.738512 104.634366,123.902415 104.939488,124.058268 C109.574122,126.43339 112.189976,127.345829 114.592902,126.745097 C115.901195,126.418756 117.112902,125.550951 118.358268,124.23461 C119.513634,123.012659 120.684366,121.412415 121.972171,119.387781 C122.804854,118.079488 125.131683,114.128268 125.426561,113.686317 C125.640951,113.364366 126.076317,112.891683 126.772171,112.228756 C127.173878,111.846805 128.809976,110.351927 129.109976,110.071683 C131.577293,107.767537 133.009244,106.069976 133.748268,104.14339 C134.118512,103.179 134.270707,102.206561 134.163146,101.236317 C133.705829,97.1241219 129.474366,90.0507073 125.251683,85.2250976 Z M129.649976,102.569488 C129.225585,103.675098 128.108268,104.999488 126.112902,106.863146 C125.843634,107.114854 124.186317,108.629488 123.745829,109.048756 C122.829732,109.920951 122.215098,110.588268 121.773146,111.250463 C121.395585,111.818268 119.035098,115.825829 118.268268,117.031683 C117.117293,118.840463 116.093634,120.239488 115.168024,121.218512 C114.446561,121.981683 113.855341,122.40461 113.528268,122.486561 C112.622415,122.712658 110.483634,121.966317 106.941439,120.150951 C106.646561,120.00022 106.338512,119.840707 105.960951,119.643878 C102.098268,117.632415 101.264854,117.22339 99.7743659,116.726561 C99.0280245,116.47778 98.1821707,116.252415 97.0150976,115.978024 C97.3655853,116.059976 94.0004633,115.29022 93.0887561,115.059 C89.116317,114.052171 86.8721707,112.926805 86.0980243,111.449488 C85.3143658,109.953878 85.4782683,107.589732 86.5377806,104.032903 C86.7719268,103.246317 87.0324146,102.448024 87.4158293,101.321195 C87.5007072,101.070951 87.7904633,100.225098 87.8116829,100.161439 C87.9690001,99.7004634 88.0875367,99.3499755 88.1994879,99.0119268 C88.4877805,98.1419268 88.7087562,97.4285122 88.8894878,96.7648537 C89.1529024,95.7975366 89.3804635,94.7526585 89.6907073,93.1538781 C89.7543659,92.826805 89.9709513,91.6948537 89.9980244,91.556561 C90.1202196,90.9221707 90.2175366,90.4289999 90.3155854,89.9526585 C91.2543658,85.3977804 92.2780245,82.8419268 93.7202196,81.8007074 C96.8607072,79.5324146 102.406317,78.5124147 106.740951,79.2660732 C110.763878,79.9655854 119.038024,84.7904635 121.948024,88.1160732 C125.622659,92.3153415 129.468512,98.7448537 129.799244,101.721439 C129.824854,101.949732 129.781683,102.227049 129.649976,102.569488 Z M107.560976,87.804878 C100.287073,87.804878 94.3902439,93.7017072 94.3902439,100.97561 C94.3902439,108.249512 100.287073,114.146341 107.560976,114.146341 C114.834878,114.146341 120.731707,108.249512 120.731707,100.97561 C120.731707,93.7017072 114.834878,87.804878 107.560976,87.804878 Z M107.560976,109.756098 C102.711951,109.756098 98.7804878,105.824634 98.7804878,100.97561 C98.7804878,96.1265854 102.711951,92.195122 107.560976,92.195122 C112.41,92.195122 116.341463,96.1265854 116.341463,100.97561 C116.341463,105.824634 112.41,109.756098 107.560976,109.756098 Z M49.7370001,115.057976 L34.2101707,99.5311464 C31.641878,96.9635854 27.4704146,96.9635854 24.8999268,99.5340732 C22.3309025,102.102366 22.3272439,106.274561 24.8970001,108.844317 L40.4238293,124.371146 C42.992122,126.939439 47.1643171,126.939439 49.734805,124.368951 C52.3038293,121.799927 52.306756,117.627732 49.7370001,115.057976 Z M46.6301707,121.264317 C45.7740731,122.120415 44.3816341,122.120415 43.5284633,121.266512 L28.0016341,105.740415 C27.1470001,104.88578 27.1484633,103.493342 28.0038293,102.637976 C28.8599268,101.781878 30.2523658,101.781878 31.1055366,102.63578 L46.6323658,118.16261 C47.4870001,119.016512 47.4855366,120.408951 46.6301707,121.264317 Z M29.8199268,119.287244 C27.2516341,116.719683 23.0801707,116.719683 20.5096829,119.290171 C17.9406586,121.858463 17.937,126.030659 20.5067562,128.600415 L36.0335854,144.127244 C38.601878,146.695537 42.7740732,146.695537 45.344561,144.125049 C47.9135854,141.556024 47.9165121,137.383829 45.3467562,134.814073 L29.8199268,119.287244 Z M42.2399268,141.020415 C41.3838292,141.876512 39.9913902,141.876512 39.1382194,141.02261 L23.6113902,125.49578 C22.7567562,124.641878 22.7582194,123.249439 23.6135854,122.394073 C24.4696829,121.537976 25.8621219,121.537976 26.7152927,122.391878 L42.2421219,137.918707 C43.0967562,138.77261 43.0952927,140.165049 42.2399268,141.020415 Z" id="Shape"></path>
        </g>
    </g>
</svg>