<?xml version="1.0" encoding="UTF-8"?>
<svg width="250px" height="250px" viewBox="0 0 250 250" version="1.1" xmlns="http://www.w3.org/2000/svg" xmlns:xlink="http://www.w3.org/1999/xlink">
    <!-- Generator: Sketch 55.2 (78181) - https://sketchapp.com -->
    <title>brulee</title>
    <desc>Created with Sketch.</desc>
    <g id="brulee" stroke="none" stroke-width="1" fill="none" fill-rule="evenodd">
        <rect id="Rectangle" stroke="#212121" stroke-width="8" x="17" y="19" width="217" height="217" rx="40"></rect>
        <g transform="translate(82.000000, 75.000000)" fill="#212121" fill-rule="nonzero">
            <path d="M72.4333333,42.3125 C74.5608049,41.0763425 76.4571086,39.4796407 78.0375,37.59375 C79.5838788,35.7396067 80.6181376,33.5130773 81.0375,31.1354167 C81.2463769,29.8598893 81.2807197,28.5618713 81.1395833,27.2770833 C80.9837776,25.9513686 80.6869585,24.646063 80.2541667,23.3833333 C79.4963603,20.8943748 78.2181094,18.5949436 76.5041667,16.6375 C74.787959,15.0917255 72.8426762,13.8211073 70.7375,12.8708333 C66.1952829,10.904538 61.3805705,9.6400965 56.4583333,9.12083333 C53.5041667,8.74791667 50.5333333,8.51666667 47.5604167,8.38541667 C45.6395833,8.3 43.7208333,8.25625 41.8041667,8.30416667 C39.9621123,8.34150954 38.1236979,8.48410317 36.2979167,8.73125 C29.7945443,9.55487527 23.5458077,11.7735214 17.9791667,15.2354167 C16.3464819,16.1893078 14.8336679,17.3349339 13.4729167,18.6479167 C11.225178,20.950242 9.64155272,23.8173236 8.88958333,26.9458333 C8.5172523,28.4661477 8.36846666,30.0326079 8.44791667,31.5958333 C8.51835456,33.1264015 8.84803531,34.6339161 9.42291667,36.0541667 C10.0420736,37.5538452 10.9390623,38.9230075 12.0666667,40.0895833 C13.3699869,41.3435867 14.8696461,42.3759659 16.50625,43.1458333 C20.3730846,45.1510607 24.460355,46.6989937 28.6854167,47.7583333 C32.8546404,48.7579491 37.1214245,49.2945284 41.4083333,49.3583333 C44.3048311,49.423457 47.2025137,49.3016764 50.0833333,48.99375 C55.2228109,48.4767805 60.2850561,47.365897 65.16875,45.6833333 C67.6995218,44.8119574 70.1338783,43.6823937 72.4333333,42.3125 Z M37.1854167,46.0625 C32.647113,45.6402524 28.1815997,44.6383475 23.8979167,43.08125 C22.3701389,42.5020833 20.8659722,41.8576389 19.3854167,41.1479167 C18.069661,40.5522925 16.7983409,39.8630225 15.58125,39.0854167 C14.9142791,38.5891076 14.3012031,38.0242118 13.7520833,37.4 C13.2482863,36.7681282 12.8131953,36.0844138 12.4541667,35.3604167 C12.1066281,34.5634887 11.8427151,33.7326514 11.6666667,32.88125 C11.4977351,31.7939909 11.4543949,30.6909117 11.5375,29.59375 C11.6804443,28.3549079 11.9649406,27.1365369 12.3854167,25.9625 C12.8458684,24.7903026 13.4341439,23.6724393 14.1395833,22.6291667 C14.8487311,21.6504547 15.6641209,20.7533163 16.5708333,19.9541667 C17.6160167,19.1240797 18.7164754,18.3660788 19.8645833,17.6854167 C21.14375,16.9048611 22.4631944,16.1861111 23.8229167,15.5291667 C27.2373498,13.9448717 30.8369511,12.794931 34.5375,12.10625 C38.2411269,11.4825514 41.9991929,11.2423927 45.7520833,11.3895833 C48.1541667,11.46875 50.54375,11.5979167 52.94375,11.80625 C57.8318403,12.1753083 62.6531541,13.1644933 67.2916667,14.75 C69.2290382,15.4718802 71.0749971,16.4186333 72.7916667,17.5708333 C73.7533016,18.2935995 74.6211017,19.133406 75.375,20.0708333 C76.1178093,21.3053197 76.7301349,22.6137554 77.2020833,23.975 C77.5322734,24.8835547 77.7920679,25.8161683 77.9791667,26.7645833 C78.1405242,27.788128 78.1887311,28.8263236 78.1229167,29.8604167 C78.0211762,30.747245 77.823491,31.6204127 77.5333333,32.4645833 C77.182246,33.3444455 76.7350929,34.1828575 76.2,34.9645833 C75.4527144,35.9682836 74.5968282,36.8863525 73.6479167,37.7020833 C71.9139891,39.094922 70.017497,40.2722722 68,41.2083333 C68.0541667,41.1833333 68.1083333,41.1604167 68.1625,41.1333333 L67.96875,41.225 L67.9166667,41.25 L67.9520833,41.2333333 L67.9104167,41.2541667 C63.6281543,43.1456551 59.1257026,44.4929611 54.5083333,45.2645833 C48.791326,46.2653107 42.9698703,46.5313543 37.1854167,46.05625 L37.1854167,46.0625 Z" id="Shape"></path>
            <polygon id="Path" points="67.96875 41.225 68 41.2083333 67.9604167 41.2270833"></polygon>
            <path d="M86.2604167,29.25 C86.2415218,29.1396617 86.2164828,29.0304641 86.1854167,28.9229167 C86.1854167,28.7145833 86.23125,28.525 86.2333333,28.325 C86.3237481,25.1980526 85.7359742,22.0886077 84.5104167,19.2104167 C83.3805678,16.6445071 81.7566369,14.3261228 79.73125,12.3875 C77.6944028,10.4631105 75.3908679,8.84228631 72.8916667,7.575 C67.5874509,4.96115304 61.867492,3.29374235 55.9895833,2.64791667 C46.7699352,1.49587756 37.4160279,2.08239588 28.4125,4.37708333 C24.4206893,5.51755616 20.6013804,7.19244574 17.0583333,9.35625 C14.2901147,10.9732044 11.7055406,12.8857893 9.35,15.0604167 C7.13457179,17.0773559 5.23239148,19.4134777 3.70625,21.9916667 C2.98209778,23.2436392 2.38135636,24.5630376 1.9125,25.93125 C1.45674776,27.2743935 1.15686371,28.665464 1.01875,30.0770833 C0.92812866,31.0861639 0.92812866,32.1013361 1.01875,33.1104167 C0.884145516,33.9917166 0.878531111,34.8879161 1.00208333,35.7708333 C1.90680411,44.1399222 3.41348436,52.4329298 5.51041667,60.5854167 C7.30028209,69.1491349 9.87145812,77.5307364 13.1916667,85.625 C13.6259387,86.5764593 14.2588718,87.4239218 15.0479167,88.1104167 C17.570764,90.162165 20.3367278,91.8953531 23.2833333,93.2708333 C26.5080959,94.7788692 29.8849537,95.937547 33.35625,96.7270833 C35.1167798,97.1216019 36.8970816,97.4220279 38.6895833,97.6270833 C40.4377586,97.8370411 42.1976782,97.9337706 43.9583333,97.9166667 C47.570863,97.8317162 51.1643553,97.3659449 54.6791667,96.5270833 C56.8744285,96.0215791 59.0402039,95.3956324 61.1666667,94.6520833 C62.0303131,94.3497072 62.8719205,93.9877255 63.6854167,93.56875 C65.7375404,92.5061706 67.7351797,91.3415184 69.6708333,90.0791667 C70.7333333,89.3895833 71.7854167,88.6791667 72.7958333,87.9083333 C73.6895833,87.2270833 74.525,86.45 75.3708333,85.7 C76.1367288,84.7753401 76.6830568,83.6890947 76.96875,82.5229167 C78.1458333,77.9833333 79.3854167,73.7854167 80.55,69.2458333 C81.1145833,67.0458333 81.45625,64.8083333 81.9104167,62.5791667 C82.3645833,60.35 82.85625,58.1729167 83.35,55.975 C84.3645833,51.4791667 85.3833333,46.9729167 85.9875,42.4 C86.6583409,38.0479136 86.7501102,33.6261723 86.2604167,29.25 Z M17.64375,86.43125 C16.7152209,85.7682856 16.0034406,84.8455805 15.5979167,83.7791667 C14.0270833,79.725 11.1479167,69.9354167 9.57916667,64.05 C7.75679201,57.2534803 6.27646004,50.3698324 5.14375,43.425 C6.09226336,44.7398705 7.15997596,45.9644971 8.33333333,47.0833333 C10.6126046,49.1310223 13.2178953,50.7836215 16.0416667,51.9729167 L16.1041667,52.3770833 C17.0583333,58.7104167 17.4645833,65.1083333 18.1875,71.46875 C18.7420977,77.3949646 19.8980468,83.2494 21.6375,88.9416667 C20.2645833,88.1708333 18.93125,87.3375 17.64375,86.43125 Z M27.0833333,91.575 C26.5166667,91.3458333 25.9645833,91.0875 25.4166667,90.8354167 C23.8757583,86.2294023 22.7231228,81.5024818 21.9708333,76.7041667 C20.8041667,68.9166667 20.3791667,61.0416667 19.2854167,53.24375 C22.3877756,54.2968088 25.5713981,55.0932371 28.8041667,55.625 C29.16875,55.6854167 29.5375,55.7229167 29.9020833,55.7791667 C29.99375,59.49375 30.4104167,69.6083333 30.7104167,74.4770833 C30.9618787,80.8707051 31.8595042,87.2224874 33.3895833,93.4354167 C33.4041667,93.4833333 33.4416667,93.51875 33.4583333,93.5666667 C31.290615,93.0481554 29.1606946,92.3827293 27.0833333,91.575 Z M38.8833333,94.5833333 C38.1458333,94.4916667 37.425,94.3645833 36.6854167,94.2395833 C36.0604167,91.8708333 35.2604167,87.9229167 34.8875,85.5458333 C33.4520833,75.84375 33.50625,66.0145833 33,56.2354167 C33.4166667,56.2895833 33.8333333,56.3645833 34.25,56.4145833 C36.2020833,56.64375 38.1604167,56.8604167 40.1270833,56.9708333 C41.3479167,57.0395833 42.56875,57.0666667 43.7916667,57.0666667 C43.95625,69.5895833 43.7395833,82.1208333 43.8708333,94.65 C43.8814429,94.7147314 43.8960542,94.778743 43.9145833,94.8416667 C42.2338344,94.8566482 40.5537089,94.7703809 38.8833333,94.5833333 L38.8833333,94.5833333 Z M43.5645833,53.9958333 C40.6484839,53.9572837 37.7365988,53.7611644 34.8416667,53.4083333 C29.2004616,52.8696091 23.6516888,51.60932 18.33125,49.6583333 C16.1627762,48.7910166 14.1035587,47.6722567 12.1958333,46.325 C10.6930101,45.1637594 9.33286108,43.8287854 8.14375,42.3479167 C7.02346207,40.9365003 6.07317603,39.3981418 5.3125,37.7645833 C4.78441965,36.5192593 4.39999441,35.2178051 4.16666667,33.8854167 C3.99417075,32.6231131 3.97039707,31.3449283 4.09583333,30.0770833 C4.29076829,28.6756202 4.64874987,27.301726 5.1625,25.9833333 C5.8606153,24.349309 6.74195121,22.7998072 7.78958333,21.3645833 C9.49254812,19.1461092 11.4606542,17.14442 13.65,15.4041667 C16.7534503,12.9908174 20.1403967,10.9660657 23.7354167,9.375 C27.3081115,7.89328751 31.0214299,6.77650004 34.81875,6.04166667 C41.4426931,5.01854869 48.1720364,4.86656414 54.8354167,5.58958333 C59.4481964,6.09857965 63.9771494,7.19423763 68.3125,8.85 C70.8657467,9.86642621 73.2828605,11.1960488 75.5083333,12.8083333 C76.8892602,13.8648323 78.147146,15.0731015 79.2583333,16.4104167 C80.1853983,17.5820102 80.9746136,18.8563588 81.6104167,20.2083333 C82.2471945,21.6878568 82.6978621,23.2407006 82.9520833,24.83125 C83.1831991,26.5467504 83.2167518,28.2831015 83.0520833,30.00625 C82.8256444,31.8222313 82.37282,33.6027343 81.7041667,35.30625 C80.9788171,37.0012378 80.0639675,38.6086892 78.9770833,40.0979167 C77.5777646,41.9217753 75.9695799,43.5754087 74.1854167,45.025 C71.8952594,46.8108973 69.3972043,48.3128083 66.7458333,49.4979167 C62.4622318,51.3101576 57.9669636,52.5743206 53.3666667,53.2604167 C50.1222941,53.7491965 46.8455621,53.9915563 43.5645833,53.9854167 L43.5645833,53.9958333 Z M56.8416667,76.6666667 C56.6333333,80 56.3770833,83.3541667 56.0083333,86.6791667 C55.8791667,87.81875 55.7479167,88.9708333 55.64375,90.10625 C55.5875,90.73125 55.4354167,92.125 55.4520833,93.1479167 C53.5770833,93.6333333 51.6770833,94.0520833 49.75625,94.3520833 C48.81875,94.4854167 47.88125,94.5979167 46.9354167,94.6791667 C46.9354167,94.64375 46.9541667,94.6145833 46.9541667,94.5791667 C46.8229167,82.0479167 47.0395833,69.5166667 46.8729167,56.9854167 C49.1565792,56.8796397 51.4332361,56.6557291 53.69375,56.3145833 C54.7909722,56.1479167 55.8854167,55.9548611 56.9770833,55.7354167 C57.3298964,62.7094009 57.2846841,69.6978311 56.8416667,76.6666667 L56.8416667,76.6666667 Z M64.8395833,89.1145833 C64.8292234,89.2171 64.8292234,89.3204 64.8395833,89.4229167 C63.6711001,90.1294276 62.4674642,90.7760951 61.2333333,91.3604167 C60.6875,91.5854167 60.1208333,91.7645833 59.5666667,91.95 C59.2104167,92.0708333 58.8479167,92.16875 58.4895833,92.28125 C58.5875,91.3625 58.7395833,90.0416667 58.775,89.6875 C58.8875,88.56875 59.0145833,87.45 59.1395833,86.3270833 C59.5166667,82.90625 59.7770833,79.4645833 59.9729167,76.0229167 C60.3961608,69.0320719 60.4205059,62.0227828 60.0458333,55.0291667 C62.3724129,54.4419426 64.6545053,53.6907596 66.875,52.78125 C67.4270833,52.5541667 67.9666667,52.2979167 68.5104167,52.05 L68.5104167,52.11875 C68.49375,52.3270833 68.6729167,58.7166667 68.5104167,61.6895833 C68.3166667,65.4083333 67.9916667,69.1166667 67.56875,72.81875 C66.9426032,78.2957761 66.0316473,83.7364774 64.8395833,89.11875 L64.8395833,89.1145833 Z M83.15,40.4166667 C82.3166667,47.4791667 80.4604167,54.3583333 79.025,61.3166667 C78.8479167,62.1729167 78.675,63.03125 78.5145833,63.89375 C78.3541667,64.75625 77.1604167,70.0270833 76.6208333,71.7291667 C75.5666667,75.0625 74.4145833,81.4895833 73.2875,83.075 C72.7720718,83.7631975 72.1969248,84.4045735 71.56875,84.9916667 C70.5395833,85.7979167 69.4625,86.5416667 68.3645833,87.2583333 C69.4833333,81.7958333 70.275,76.2625 70.8520833,70.7270833 C71.5333333,64.175 71.5895833,50.6583333 71.5375,50.51875 C71.6708333,50.4416667 71.8125,50.3791667 71.9541667,50.3104167 C73.5571257,49.361787 75.0833207,48.2890621 76.51875,47.1020833 C79.2512604,44.8912032 81.5432395,42.1857774 83.275,39.1270833 C83.23125,39.5354167 83.1979167,39.9708333 83.15,40.4166667 Z" id="Shape"></path>
            <path d="M65.625,17.675 C65.0724453,16.7839149 64.2644862,16.0797636 63.30625,15.6541667 C62.4269402,15.2853207 61.4827023,15.0961898 60.5291667,15.0979167 C60.3729167,15.0979167 60.2125,15.0979167 60.0520833,15.1125 C57.5462674,15.354893 55.1233813,16.1404826 52.9520833,17.4145833 C52.4354167,17.7 51.9291667,18.00625 51.43125,18.3229167 C51.3573283,17.8219676 51.2215702,17.3321186 51.0270833,16.8645833 C50.6759832,15.9599394 50.102819,15.1582259 49.3604167,14.5333333 C48.6229734,13.9301046 47.7732626,13.4790498 46.8604167,13.20625 C46.1207782,12.9974683 45.3560396,12.8909236 44.5875,12.8895833 C44.4486111,12.8895833 44.3097222,12.89375 44.1708333,12.9020833 C43.2304532,12.9390454 42.3005071,13.1131032 41.4104167,13.41875 C40.519928,13.7195906 39.6814894,14.1567313 38.925,14.7145833 C38.1025803,15.3209813 37.3967513,16.0712776 36.8416667,16.9291667 C36.5474753,17.4249504 36.3125325,17.9535716 36.1416667,18.5041667 C34.5192363,17.9447167 32.8248421,17.6212734 31.1104167,17.54375 C30.94375,17.54375 30.7791667,17.54375 30.6145833,17.54375 C29.7083278,17.5371569 28.8043674,17.6357326 27.9208333,17.8375 C26.9943625,18.0296381 26.1158942,18.4058209 25.3375,18.94375 C24.5219046,19.5021228 23.8737242,20.272017 23.4625,21.1708333 C23.2437934,21.6643019 23.0924372,22.1849393 23.0125,22.71875 C22.9270995,23.2792783 22.9124013,23.8483103 22.96875,24.4125 C23.096487,25.873936 23.5823335,27.2813881 24.3833333,28.5104167 C25.1977477,29.6877464 26.2619407,30.6708446 27.5,31.3895833 C28.368012,31.8766238 29.2903279,32.259815 30.2479167,32.53125 C30.0628572,33.4086841 29.9713734,34.3032701 29.975,35.2 C29.9752917,36.0648799 30.1160116,36.9239747 30.3916667,37.74375 C30.8674872,39.1877272 31.8939135,40.3855989 33.2479167,41.0770833 C34.9439833,41.8270784 36.8430087,41.9848413 38.6395833,41.525 C40.4309165,41.1144804 42.091936,40.2646398 43.4729167,39.0520833 C43.5604167,38.9729167 43.6333333,38.8770833 43.71875,38.7958333 C44.1674987,40.2124776 44.9664687,41.4929792 46.0416667,42.51875 C46.6289313,43.0703791 47.3060065,43.5177701 48.04375,43.8416667 C48.4376933,44.0161945 48.8435845,44.1623989 49.2583333,44.2791667 C49.7005511,44.3858607 50.1494989,44.4624255 50.6020833,44.5083333 C52.178288,44.6792523 53.7702526,44.3898042 55.1854167,43.675 C57.7409775,42.3403781 59.4827954,39.8408422 59.85,36.98125 C59.9094878,36.5428292 59.9380306,36.1007638 59.9354167,35.6583333 C59.9144638,35.2666236 59.8713391,34.8764153 59.80625,34.4895833 C59.6912108,33.8019449 59.4808521,33.1337055 59.18125,32.5041667 C58.9208321,31.9621554 58.59174,31.4559138 58.2020833,30.9979167 C58.7875,30.7604167 59.36875,30.5083333 59.9333333,30.2208333 C61.1975793,29.5848303 62.3786905,28.7955569 63.45,27.8708333 C64.422329,27.0592067 65.2305783,26.069225 65.83125,24.9541667 C66.4301578,23.8179404 66.7108866,22.5409843 66.64375,21.2583333 C66.6125593,19.9969718 66.2620547,18.764113 65.625,17.675 Z M30.2458333,29.325 C29.5861166,29.0443211 28.9576752,28.695187 28.3708333,28.2833333 C27.9543158,27.9567396 27.5711932,27.5896676 27.2270833,27.1875 C26.9446584,26.8034776 26.6984648,26.3940849 26.4916667,25.9645833 C26.3003446,25.4746622 26.1566263,24.9674621 26.0625,24.45 C26.015639,24.054571 26.0051785,23.6556749 26.03125,23.2583333 C26.0717078,23.0100656 26.132325,22.7655066 26.2125,22.5270833 C26.2929066,22.3554032 26.3855045,22.1897016 26.4895833,22.03125 C26.6292665,21.862747 26.7818072,21.7053306 26.9458333,21.5604167 C27.1829981,21.3918083 27.4338761,21.2433722 27.6958333,21.1166667 C28.1928161,20.9258104 28.7079877,20.7861975 29.2333333,20.7 C30.1749625,20.5968721 31.1250375,20.5968721 32.0666667,20.7 C33.4575943,20.8914249 34.821147,21.2459486 36.1291667,21.75625 C37.2119144,22.2025178 38.2423936,22.7663121 39.2020833,23.4375 C39.8217578,23.9069472 40.3901809,24.4404549 40.8979167,25.0291667 C41.1005239,25.3147839 41.2842487,25.6133368 41.4479167,25.9229167 C39.6583333,25.1145833 37.8958333,24.2416667 36.075,23.5020833 C35.8260787,23.3873415 35.5571722,23.3222378 35.2833333,23.3104167 C35.1493126,23.3112865 35.0160742,23.3309216 34.8875,23.36875 C34.4947396,23.4826922 34.1637695,23.74881 33.9681602,24.1079486 C33.772551,24.4670872 33.7285123,24.8894857 33.8458333,25.28125 C33.9518044,25.6698529 34.2122972,25.9981039 34.5666667,26.1895833 C36.65,27.0354167 38.6583333,28.0645833 40.71875,28.9625 C40.6479167,28.9979167 40.58125,29.0479167 40.5104167,29.08125 C39.4929595,29.5008173 38.4313703,29.8041285 37.3458333,29.9854167 C35.9966253,30.1782603 34.6290234,30.2069414 33.2729167,30.0708333 C32.2390313,29.9369592 31.2235699,29.6867629 30.2458333,29.325 L30.2458333,29.325 Z M42.6208333,35.1583333 C42.4850831,35.4492234 42.3247804,35.7280107 42.1416667,35.9916667 C41.8339957,36.3707773 41.4907659,36.7195881 41.1166667,37.0333333 C40.5831652,37.4293343 40.0116024,37.771295 39.4104167,38.0541667 C38.7583996,38.3259001 38.0786844,38.5256931 37.3833333,38.65 C36.8740352,38.7131267 36.3597909,38.726384 35.8479167,38.6895833 C35.5120832,38.6372233 35.1816018,38.5549516 34.8604167,38.44375 C34.6499178,38.3494861 34.4472027,38.2387242 34.2541667,38.1125 C34.0791996,37.9705135 33.9161547,37.8144363 33.7666667,37.6458333 C33.6315744,37.4526248 33.5104337,37.2500275 33.4041667,37.0395833 C33.2786492,36.710513 33.1824421,36.3709993 33.1166667,36.025 C33.0392448,35.3391658 33.0357526,34.6469972 33.10625,33.9604167 C33.1458333,33.6854167 33.2041667,33.4125 33.25625,33.1395833 C36.1302994,33.4512676 39.0364846,33.0305695 41.7041667,31.9166667 C41.8166667,32.0354167 41.9395833,32.14375 42.0458333,32.26875 C42.2481606,32.5429356 42.4272543,32.8335273 42.58125,33.1375 C42.6704172,33.3666441 42.7401084,33.6028973 42.7895833,33.84375 C42.8051136,34.0517939 42.8051136,34.2607061 42.7895833,34.46875 C42.7506378,34.6997731 42.694226,34.9275096 42.6208333,35.15 L42.6208333,35.1583333 Z M44.4291667,25 C44.1629255,24.3819242 43.8214582,23.7990507 43.4125,23.2645833 C42.2095859,21.7893796 40.7106563,20.5828548 39.0125,19.7229167 C39.0583333,19.5479167 39.08125,19.3666667 39.1395833,19.19375 C39.2903324,18.8585153 39.4701879,18.5371455 39.6770833,18.2333333 C39.9399675,17.9079481 40.2321656,17.6073815 40.55,17.3354167 C40.9636243,17.0270398 41.4059367,16.7591408 41.8708333,16.5354167 C42.4360446,16.308259 43.0231793,16.1400076 43.6229167,16.0333333 C44.1470595,15.9719184 44.6759212,15.9614528 45.2020833,16.0020833 C45.6143085,16.0651174 46.0200851,16.1648185 46.4145833,16.3 C46.6950302,16.4263985 46.9646778,16.575506 47.2208333,16.7458333 C47.4130312,16.9047178 47.5927276,17.0781456 47.7583333,17.2645833 C47.9061916,17.4707438 48.0378364,17.6880622 48.1520833,17.9145833 C48.2607556,18.2058744 48.3457535,18.5054571 48.40625,18.8104167 C48.4451244,19.1722247 48.4590462,19.5362797 48.4479167,19.9 C48.4453835,20.0861788 48.4823045,20.2707836 48.55625,20.4416667 C47.8801713,20.9904628 47.2367151,21.5782688 46.6291667,22.2020833 C45.8018454,23.0568278 45.0646329,23.9944001 44.4291667,25 Z M56.4375,37.9708333 C56.071536,38.8961257 55.4756834,39.7128238 54.70625,40.34375 C54.3323204,40.6240578 53.9326083,40.86821 53.5125,41.0729167 C53.1141999,41.2285317 52.7028602,41.3484477 52.2833333,41.43125 C51.7818616,41.4888782 51.2759058,41.4965548 50.7729167,41.4541667 C50.3235879,41.3849409 49.8819674,41.2726172 49.4541667,41.11875 C49.1191597,40.967549 48.7978283,40.787715 48.49375,40.58125 C48.1887392,40.3324562 47.9057468,40.0578281 47.6479167,39.7604167 C47.3462192,39.3521355 47.0839332,38.9161548 46.8645833,38.4583333 C46.5857594,37.7663392 46.3797865,37.0471797 46.25,36.3125 C46.1247212,35.3276177 46.1107442,34.3317603 46.2083333,33.34375 C46.2625,32.9541667 46.35625,32.5708333 46.4458333,32.1895833 C46.7555916,32.2868188 47.0706977,32.366117 47.3895833,32.4270833 C48.7089679,32.675408 50.0557189,32.7454783 51.39375,32.6354167 C52.57103,32.5286732 53.7383596,32.3315645 54.8854167,32.0458333 L54.9229167,32.0708333 C55.2499605,32.3324088 55.5538619,32.6216727 55.83125,32.9354167 C56.064514,33.2444724 56.2688475,33.574335 56.4416667,33.9208333 C56.594712,34.3027023 56.7112056,34.6982223 56.7895833,35.1020833 C56.8405984,35.5572515 56.8489681,36.016191 56.8145833,36.4729167 C56.7388273,36.9821245 56.6125086,37.4825142 56.4375,37.9666667 L56.4375,37.9708333 Z M63.2729167,23.1458333 C63.0825434,23.550023 62.8573901,23.9368963 62.6,24.3020833 C62.1208605,24.9000167 61.5796371,25.4454301 60.9854167,25.9291667 C59.9190616,26.7313857 58.7660057,27.4113393 57.5479167,27.95625 C55.9443156,28.6370631 54.2660783,29.126549 52.5479167,29.4145833 C51.307029,29.6017307 50.0486273,29.6443765 48.7979167,29.5416667 C48.4979167,29.4979167 48.2,29.4416667 47.90625,29.375 C50.8354167,28.0152778 53.7256944,26.5743056 56.5770833,25.0520833 C57.2983083,24.6056156 57.5266978,23.6623484 57.0895833,22.9354167 C56.8173408,22.4809889 56.3234205,22.2062358 55.79375,22.2145833 C55.5029887,22.2138052 55.2166046,22.2854012 54.9604167,22.4229167 C52.4326389,23.76875 49.8708333,25.0520833 47.275,26.2729167 C47.3895833,26.1 47.4979167,25.9229167 47.61875,25.7541667 C48.6047666,24.5159408 49.728685,23.3941193 50.96875,22.4104167 C52.5374084,21.1792281 54.2448744,20.1360097 56.05625,19.3020833 C57.1552222,18.8235424 58.3059555,18.473988 59.4854167,18.2604167 C60.0220355,18.1902969 60.5643398,18.1742441 61.1041667,18.2125 C61.3969282,18.2579988 61.6854155,18.3276817 61.9666667,18.4208333 C62.1465033,18.5072769 62.3204866,18.6054035 62.4875,18.7145833 C62.6178238,18.8261922 62.7403339,18.9466141 62.8541667,19.075 C62.9812855,19.2544605 63.0947969,19.4431819 63.19375,19.6395833 C63.3318841,20.005574 63.4358007,20.3835795 63.5041667,20.76875 C63.5579504,21.2124302 63.5732853,21.6599288 63.55,22.10625 C63.4886051,22.4589401 63.3958766,22.8054517 63.2729167,23.1416667 L63.2729167,23.1458333 Z" id="Shape"></path>
            <path d="M54.9041667,34.2333333 C54.2803689,34.2435604 53.7242275,34.628743 53.495306,35.2091077 C53.2663846,35.7894725 53.4098162,36.4505975 53.8586581,36.8839209 C54.3075,37.3172444 54.9732607,37.4373343 55.5452148,37.188142 C56.1171689,36.9389498 56.4825527,36.3696048 56.4708333,35.7458333 C56.449255,34.8984402 55.7517944,34.225094 54.9041667,34.2333333 L54.9041667,34.2333333 Z" id="Path"></path>
            <path d="M45.25625,17.7083333 C44.6326594,17.7193998 44.0771688,18.1051018 43.8489028,18.6855175 C43.6206368,19.2659331 43.7645701,19.9267047 44.2135608,20.3595962 C44.6625516,20.7924876 45.3281363,20.9122075 45.8998337,20.662909 C46.4715312,20.4136106 46.8367013,19.8444124 46.825,19.2208333 C46.8045261,18.3721313 46.1051338,17.6978169 45.25625,17.7083333 Z" id="Path"></path>
            <path d="M35.3041667,34.6291667 C34.6805761,34.6402331 34.1250854,35.0259351 33.8968195,35.6063508 C33.6685535,36.1867665 33.8124868,36.847538 34.2614775,37.2804295 C34.7104683,37.713321 35.3760529,37.8330409 35.9477504,37.5837424 C36.5194479,37.3344439 36.884618,36.7652457 36.8729167,36.1416667 C36.8513293,35.2934542 36.1526019,34.6197807 35.3041667,34.6291667 L35.3041667,34.6291667 Z" id="Path"></path>
            <path d="M24.23125,32.2916667 C23.6074522,32.3018937 23.0513108,32.6870763 22.8223894,33.2674411 C22.5934679,33.8478058 22.7368996,34.5089308 23.1857415,34.9422543 C23.6345834,35.3755777 24.3003441,35.4956676 24.8722982,35.2464753 C25.4442522,34.9972831 25.809636,34.4279382 25.7979167,33.8041667 C25.7752331,32.9572599 25.0784306,32.2845489 24.23125,32.2916667 L24.23125,32.2916667 Z" id="Path"></path>
            <path d="M16.3208333,26.96875 C17.1708944,26.9524934 17.846856,26.2502576 17.8307011,25.4001946 C17.8145462,24.5501316 17.1123912,23.874086 16.2623263,23.8901392 C15.4122614,23.9061925 14.7361318,24.6082665 14.7520833,25.4583333 C14.7725619,26.306707 15.4722928,26.9804187 16.3208333,26.96875 L16.3208333,26.96875 Z" id="Path"></path>
            <path d="M16.2833333,32.3854167 C15.4335381,32.4016474 14.7576617,33.1034492 14.7734144,33.9532535 C14.7891672,34.8030577 15.4905887,35.4793287 16.3404017,35.464054 C17.1902147,35.4487792 17.8668801,34.7477381 17.8520833,33.8979167 C17.830496,33.0497042 17.1317686,32.3760307 16.2833333,32.3854167 Z" id="Path"></path>
            <path d="M74.49375,28.5104167 C75.1175478,28.5001896 75.6736892,28.115007 75.9026106,27.5346423 C76.1315321,26.9542775 75.9881004,26.2931525 75.5392585,25.8598291 C75.0904166,25.4265056 74.4246559,25.3064157 73.8527018,25.555608 C73.2807478,25.8048002 72.915364,26.3741452 72.9270833,26.9979167 C72.9475508,27.8457977 73.6456737,28.5197833 74.49375,28.5104167 L74.49375,28.5104167 Z" id="Path"></path>
            <path d="M69.56875,32.6791667 C69.5525193,31.8293714 68.8507175,31.153495 68.0009132,31.1692478 C67.151109,31.1850005 66.474838,31.8864221 66.4901127,32.7362351 C66.5053875,33.586048 67.2064286,34.2627134 68.05625,34.2479167 C68.9034883,34.2241194 69.575892,33.526709 69.56875,32.6791667 Z" id="Path"></path>
        </g>
    </g>
</svg>