<?xml version="1.0" encoding="UTF-8"?>
<svg width="250px" height="250px" viewBox="0 0 250 250" version="1.1" xmlns="http://www.w3.org/2000/svg" xmlns:xlink="http://www.w3.org/1999/xlink">
    <!-- Generator: Sketch 55.2 (78181) - https://sketchapp.com -->
    <title>burger</title>
    <desc>Created with Sketch.</desc>
    <g id="burger" stroke="none" stroke-width="1" fill="none" fill-rule="evenodd">
        <rect id="Rectangle" stroke="#212121" stroke-width="8" x="17" y="19" width="217" height="217" rx="40"></rect>
        <g id="noun_Burger_2158097-Copy" transform="translate(56.000000, 60.000000)" fill="#212121" fill-rule="nonzero">
            <path d="M50.5063291,23.0379747 L66.4556962,23.0379747 C67.9237949,23.0379747 69.1139241,21.8478455 69.1139241,20.3797468 C69.1139241,18.9116481 67.9237949,17.721519 66.4556962,17.721519 L50.5063291,17.721519 C49.0382304,17.721519 47.8481013,18.9116481 47.8481013,20.3797468 C47.8481013,21.8478455 49.0382304,23.0379747 50.5063291,23.0379747 L50.5063291,23.0379747 Z" id="Path"></path>
            <path d="M138.316456,79.1974684 C138.310894,74.3738325 136.040382,69.8328083 132.18481,66.9341772 C135.462041,63.0435873 137.301616,58.144309 137.394937,53.0582278 C137.394937,34.8405063 114.481013,0.86835443 70.6556962,0.86835443 C26.2101266,0.86835443 3.9164557,34.3265823 3.9164557,53.0582278 C3.96826368,57.4179019 5.34673013,61.6583861 7.86835443,65.2151899 C2.99251028,68.9056279 0.323024661,74.8185385 0.779746835,80.9164557 C1.10965794,84.7983237 2.70329814,88.4649412 5.3164557,91.3544304 C4.40775466,93.6693056 3.93897279,96.1334154 3.93417722,98.6202532 C3.93417722,118.344304 33.2455696,133.797468 70.6734177,133.797468 C108.101266,133.797468 137.412658,118.344304 137.412658,98.6202532 C137.352359,95.1409137 136.413579,91.7332646 134.683544,88.7139241 C136.994779,86.0790069 138.283855,82.7022552 138.316456,79.1974684 L138.316456,79.1974684 Z M126.301266,88.7316456 C110.972152,96.7594937 95.2,100.746835 74.235443,101.774684 C74.5367089,101.083544 74.8202532,100.374684 75.1037975,99.6835443 C77.4253165,93.9417722 79.6227848,88.5012658 86.8886076,87.278481 L86.8886076,87.278481 C104.805063,85.0101266 119.655696,79.0202532 128.534177,70.8860759 C131.33179,72.750552 133.013867,75.8886553 133.017722,79.2506329 C133,84.6379747 128.321519,87.6860759 126.318987,88.7316456 L126.301266,88.7316456 Z M70.6734177,6.20253165 C110.405063,6.20253165 132.096203,37.2151899 132.096203,53.0759494 C132.096203,69.2556962 103.972152,82.9367089 70.6734177,82.9367089 C37.3746835,82.9367089 9.23291139,69.2556962 9.23291139,53.0759494 C9.23291139,36.2582278 29.7721519,6.20253165 70.6734177,6.20253165 Z M11.2531646,69.3265823 C22.2227848,80.6506329 44.4455696,88.235443 70.6556962,88.235443 C72.1974684,88.235443 73.721519,88.235443 75.2278481,88.235443 C73.0706449,91.1418628 71.3621417,94.3557604 70.1594937,97.7696203 C69.556962,99.2759494 68.9721519,100.675949 68.3873418,101.951899 C65.4987342,107.711392 63.6379747,111.025316 58.8531646,111.929114 C55.8050633,112.513924 51.764557,112.443038 47.3696203,106.612658 C46.7281588,105.587155 46.1767308,104.508016 45.721519,103.387342 C43.1696203,97.7341772 38.4379747,87.1898734 24.278481,90.9822785 C23.7113924,91.1240506 23.1620253,91.3012658 22.5063291,91.478481 C21.5838393,91.8139284 20.6269018,92.0457331 19.6531646,92.1696203 C14.0348548,92.6255335 8.79726839,89.2944413 6.82799982,84.0128465 C4.85873126,78.7312518 6.63694706,72.7842832 11.1822785,69.4506329 L11.2531646,69.3265823 Z M70.6734177,128.481013 C37.3746835,128.481013 9.25063291,114.817722 9.25063291,98.6202532 C9.26771621,97.422759 9.43440912,96.2320955 9.74683544,95.0759494 C12.8976454,96.9083385 16.534399,97.7309375 20.1670886,97.4329114 C21.5453294,97.2848194 22.9014352,96.9755321 24.2075949,96.5113924 L25.6253165,96.0860759 C34.6810127,93.7113924 37.7822785,98.7620253 40.8658228,105.620253 C41.4609991,107.10579 42.2093434,108.525268 43.0987342,109.855696 C46.9443038,114.977215 51.356962,117.493671 56.5139241,117.493671 C57.6261278,117.491569 58.735664,117.384768 59.8278481,117.174684 C66.1012658,115.987342 69.1670886,111.858228 71.6126582,107.303797 C94.8455696,106.453165 112.035443,102.324051 128.782278,93.5341772 C129.437975,93.1974684 130.058228,92.8075949 130.643038,92.4177215 C131.577529,94.3847088 132.07336,96.5312954 132.096203,98.7088608 C132.096203,114.817722 103.972152,128.481013 70.6734177,128.481013 Z" id="Shape"></path>
            <path d="M79.8886076,38.7392405 C80.5933759,38.7386201 81.2690524,38.4581506 81.7670886,37.9594937 L93.9240506,25.7139241 C94.9000061,24.6665477 94.8712087,23.0343959 93.8589127,22.0221 C92.8466167,21.009804 91.214465,20.9810066 90.1670886,21.956962 L77.9746835,34.1848101 C77.2154217,34.9450166 76.988452,36.0875415 77.3994892,37.0802352 C77.8105264,38.0729289 78.7787384,38.720574 79.8531646,38.721519 L79.8886076,38.7392405 Z" id="Path"></path>
            <path d="M56.2481013,36.5240506 C55.2007249,35.5480952 53.5685731,35.5768926 52.5562772,36.5891886 C51.5439812,37.6014845 51.5151838,39.2336363 52.4911392,40.2810127 L64.7367089,52.5265823 C65.7840852,53.5025377 67.416237,53.4737403 68.428533,52.4614444 C69.4408289,51.4491484 69.4696263,49.8169966 68.4936709,48.7696203 L56.2481013,36.5240506 Z" id="Path"></path>
        </g>
    </g>
</svg>