<?xml version="1.0" encoding="UTF-8"?>
<svg width="250px" height="250px" viewBox="0 0 250 250" version="1.1" xmlns="http://www.w3.org/2000/svg" xmlns:xlink="http://www.w3.org/1999/xlink">
    <!-- Generator: Sketch 55.2 (78181) - https://sketchapp.com -->
    <title>jelly</title>
    <desc>Created with Sketch.</desc>
    <g id="jelly" stroke="none" stroke-width="1" fill="none" fill-rule="evenodd">
        <rect id="Rectangle" stroke="#212121" stroke-width="8" x="17" y="19" width="217" height="217" rx="40"></rect>
        <g id="Group" transform="translate(55.000000, 75.000000)" fill="#212121" fill-rule="nonzero">
            <path d="M133.166742,59.2451685 C133.003146,59.2451685 132.839551,59.2231461 132.675955,59.1759551 L6.07348315,23.005618 C5.27595506,22.7775281 4.7411236,22.0319101 4.78044944,21.2029213 C4.81977528,20.3755056 5.42382022,19.6833708 6.24022472,19.5323596 L104.068764,1.44561798 C104.836404,1.30719101 105.605618,1.67685393 105.970562,2.3658427 L134.620225,56.3916854 C134.843596,56.6889888 134.974157,57.0586517 134.974157,57.4597753 C134.974157,58.4460674 134.175056,59.2451685 133.188764,59.2451685 C133.185618,59.2451685 133.174607,59.2451685 133.166742,59.2451685 Z M14.371236,21.6606742 L129.62427,54.5905618 L103.431685,5.19730337 L14.371236,21.6606742 Z" id="Shape"></path>
            <path d="M132.145843,81.0191011 C131.044719,81.0191011 129.783146,80.9231461 128.39573,80.7359551 C128.16764,80.7044944 127.952135,80.6085393 127.779101,80.4575281 C127.730337,80.4166292 122.575506,76.112809 114.041798,76.112809 C112.146292,76.112809 110.197303,76.3251685 108.251461,76.7435955 C108.024944,76.7782022 107.834607,76.811236 107.598652,76.8505618 C106.447191,77.047191 104.303146,77.4121348 101.643146,77.4121348 C93.9620225,77.4121348 87.7737079,74.3337079 83.7262921,68.505618 C82.8957303,68.0006742 78.6957303,65.7166292 70.7094382,65.7166292 C69.2559551,65.7166292 67.7348315,65.7937079 66.1916854,65.941573 C65.7622472,65.9478652 65.3422472,66.0060674 64.8561798,66.0737079 C64.1451685,66.172809 63.2579775,66.2939326 62.2386517,66.2939326 C58.2006742,66.2939326 54.2539326,64.2364045 50.1782022,60.0033708 C49.3319101,59.6698876 45.6698876,58.38 39.6058427,58.38 C38.3773034,58.38 37.1062921,58.4319101 35.8274157,58.5373034 C35.7078652,58.5624719 35.5773034,58.5923596 35.4373034,58.6253933 C34.7152809,58.7921348 33.7274157,59.0202247 32.5334831,59.0202247 C28.4892135,59.0202247 24.9042697,56.3067416 21.8793258,50.9552809 C21.841573,50.8892135 21.8101124,50.818427 21.7865169,50.7460674 L21.7865169,50.7460674 C21.7802247,50.7460674 20.1946067,47.6865169 9.26988764,46.2157303 C8.19865169,46.2062921 1.8105618,46.0002247 0.311460674,42.3806742 C-0.633932584,40.0982022 0.569438202,37.3265169 3.98764045,33.9067416 C4.29123596,33.6031461 4.73640449,33.4883146 5.15011236,33.601573 L135.864494,70.188764 C136.103596,70.2564045 136.317528,70.3964045 136.473258,70.5914607 C136.842921,71.0539326 140.048764,75.2035955 138.559101,78.3024719 C137.69236,80.1051685 135.534157,81.0191011 132.145843,81.0191011 Z M129.040674,78.4204494 C133.14,78.9348315 135.825169,78.4991011 136.413483,77.2721348 C137.026966,75.9948315 135.73236,73.6038202 134.838876,72.3768539 L5.1894382,36.0901124 C2.98089888,38.4166292 2.03235955,40.3152809 2.51213483,41.4730337 C3.25146067,43.26 7.44044944,43.8373034 9.35168539,43.8373034 C9.40516854,43.8373034 9.45707865,43.8404494 9.50898876,43.8483146 C21.3083146,45.4213483 23.5829213,48.8804494 23.9934831,49.8588764 C26.5889888,54.4222472 29.3842697,56.6417978 32.5334831,56.6417978 C33.4552809,56.6417978 34.2575281,56.4561798 34.9024719,56.3067416 C35.094382,56.2626966 35.2674157,56.2233708 35.4247191,56.1919101 C35.468764,56.1824719 35.514382,56.1761798 35.56,56.1730337 C36.9285393,56.0582022 38.2907865,56.001573 39.6074157,56.001573 C47.1170787,56.001573 51.1959551,57.8435955 51.3658427,57.9222472 C51.5026966,57.9867416 51.6269663,58.0748315 51.7307865,58.1833708 C56.6103371,63.3193258 60.0647191,63.9139326 62.2386517,63.9139326 C63.092809,63.9139326 63.8557303,63.8085393 64.5289888,63.7157303 C65.0779775,63.6402247 65.5970787,63.5678652 66.0752809,63.5678652 C67.5806742,63.4168539 69.1788764,63.3366292 70.7078652,63.3366292 C80.4889888,63.3366292 85.072809,66.5314607 85.2631461,66.6683146 C85.3779775,66.7501124 85.4770787,66.8523596 85.5557303,66.968764 C89.1878652,72.3202247 94.6006742,75.0337079 101.641573,75.0337079 C104.100225,75.0337079 106.115281,74.6907865 107.197528,74.5051685 C107.469663,74.4579775 107.685169,74.4233708 107.840899,74.4013483 C109.859101,73.9624719 111.974831,73.732809 114.038652,73.732809 C122.413483,73.732809 127.758652,77.4310112 129.040674,78.4204494 Z" id="Shape"></path>
            <path d="M132.781348,72.3910112 C132.620899,72.3910112 132.458876,72.3689888 132.3,72.3249438 L5.69752809,36.8923596 C4.92674157,36.6768539 4.39348315,35.9737079 4.39348315,35.1730337 L4.39348315,21.1620225 C4.39348315,20.6020225 4.65617978,20.0734831 5.10449438,19.7368539 C5.55280899,19.3986517 6.13168539,19.2916854 6.67123596,19.4442697 L133.273708,55.6161798 C134.039775,55.8348315 134.568315,56.5364045 134.568315,57.3339326 L134.568315,70.607191 C134.568315,71.167191 134.307191,71.6925843 133.862022,72.0307865 C133.545843,72.2667416 133.165169,72.3910112 132.781348,72.3910112 Z M7.96426966,33.8170787 L130.994382,68.2507865 L130.994382,58.6804494 L7.96426966,23.5278652 L7.96426966,33.8170787 Z" id="Shape"></path>
            <path d="M132.781348,97.7577528 C132.606742,97.7577528 132.432135,97.7325843 132.260674,97.6791011 L5.65662921,59.0406742 C4.90629213,58.8110112 4.39191011,58.1188764 4.39191011,57.3323596 L4.39191011,44.7449438 C4.39191011,44.2116854 4.6294382,43.7083146 5.04,43.3685393 C5.4505618,43.0303371 5.98853933,42.8919101 6.51393258,42.9910112 C8.00988764,43.2773034 9.34224719,43.2851685 9.35483146,43.2851685 C9.43191011,43.2851685 9.5105618,43.2914607 9.58764045,43.3008989 C21.3649438,44.8723596 23.9651685,48.3235955 24.5298876,49.6402247 C27.0042697,53.9786517 29.6233708,56.0880899 32.5334831,56.0880899 C33.3876404,56.0880899 34.1521348,55.9119101 34.767191,55.7703371 C34.9653933,55.7231461 35.1462921,55.6838202 35.3083146,55.6507865 C35.374382,55.6366292 35.4420225,55.627191 35.5096629,55.6224719 C36.8939326,55.5076404 38.2734831,55.4494382 39.6074157,55.4494382 C47.2444944,55.4494382 51.4397753,57.3449438 51.6159551,57.4251685 C51.8204494,57.5211236 52.0060674,57.6532584 52.1617978,57.8168539 C56.8840449,62.7876404 60.1748315,63.3633708 62.2386517,63.3633708 C63.0519101,63.3633708 63.792809,63.2611236 64.447191,63.1698876 C64.9835955,63.0959551 65.4901124,63.0251685 65.9808989,63.0173034 C67.5948315,62.8631461 69.1851685,62.7844944 70.7094382,62.7844944 C80.6793258,62.7844944 85.4141573,66.0847191 85.6092135,66.2247191 C85.7806742,66.3474157 85.9301124,66.5 86.0480899,66.6761798 C89.5622472,71.8546067 94.8083146,74.481573 101.641573,74.481573 C104.048315,74.481573 106.028764,74.1449438 107.093708,73.9624719 C107.335955,73.921573 107.534157,73.8885393 107.688315,73.8665169 C109.818202,73.4119101 111.955955,73.1822472 114.041798,73.1822472 C122.312809,73.1822472 127.724045,76.7325843 129.270337,77.8903371 C130.542921,78.0444944 131.699101,78.0979775 132.707416,78.0539326 C133.215506,78.0350562 133.666966,78.214382 134.01618,78.5510112 C134.366966,78.8876404 134.565169,79.3532584 134.565169,79.8393258 L134.565169,95.9707865 C134.565169,96.5370787 134.29618,97.068764 133.841573,97.4069663 C133.531685,97.6366292 133.158876,97.7577528 132.781348,97.7577528 Z M7.96426966,56.0110112 L130.994382,93.5593258 L130.994382,81.6168539 C130.152809,81.5806742 129.267191,81.4988764 128.315506,81.3698876 C127.974157,81.3226966 127.653258,81.1795506 127.390562,80.9546067 C127.344944,80.9168539 122.333258,76.7546067 114.041798,76.7546067 C112.187191,76.7546067 110.282247,76.9622472 108.37573,77.372809 C108.328539,77.3822472 108.284494,77.3901124 108.23573,77.3964045 C108.105169,77.4152809 107.922697,77.4467416 107.693034,77.4844944 C106.52427,77.6826966 104.348764,78.0539326 101.641573,78.0539326 C93.8047191,78.0539326 87.4732584,74.9235955 83.3094382,68.9964045 C82.3483146,68.4364045 78.2710112,66.358427 70.7078652,66.358427 C69.2732584,66.358427 67.7725843,66.4339326 66.2451685,66.5817978 C65.9179775,66.6164045 65.4964045,66.6337079 64.9348315,66.7092135 C64.2049438,66.8098876 63.2973034,66.9357303 62.2370787,66.9357303 C58.0591011,66.9357303 53.9991011,64.8498876 49.838427,60.5586517 C48.861573,60.1889888 45.3301124,59.0233708 39.6042697,59.0233708 C38.4024719,59.0233708 37.1613483,59.0752809 35.9107865,59.1759551 C35.8038202,59.1995506 35.6889888,59.2262921 35.5662921,59.2546067 C34.86,59.4166292 33.7919101,59.6635955 32.5303371,59.6635955 C28.2548315,59.6635955 24.4968539,56.8494382 21.3586517,51.2966292 C21.2689888,51.1377528 21.2548315,51.1739326 21.231236,51.0575281 C20.9229213,50.6280899 18.7537079,48.1458427 9.21640449,46.8591011 C9.00561798,46.854382 8.5541573,46.8402247 7.95955056,46.7898876 L7.95955056,56.0110112 L7.96426966,56.0110112 Z" id="Shape"></path>
            <path d="M132.781348,90.0325843 C132.669663,90.0325843 132.556404,90.0168539 132.444719,89.9838202 L6.22764045,52.6793258 C5.59685393,52.4937079 5.23662921,51.8298876 5.42382022,51.2006742 C5.61101124,50.5698876 6.27640449,50.2080899 6.90247191,50.3968539 L133.117978,87.6997753 C133.748764,87.8853933 134.108989,88.5492135 133.921798,89.178427 C133.769213,89.6975281 133.294157,90.0325843 132.781348,90.0325843 Z" id="Path"></path>
            <path d="M132.589438,66.9168539 C132.480899,66.9168539 132.369213,66.9011236 132.260674,66.8696629 L6.04359551,30.7559551 C5.41123596,30.5750562 5.0447191,29.9159551 5.22561798,29.2835955 C5.40651685,28.651236 6.06719101,28.2847191 6.69797753,28.465618 L132.915056,64.5808989 C133.545843,64.7617978 133.91236,65.4208989 133.731461,66.0532584 C133.583596,66.5755056 133.106966,66.9168539 132.589438,66.9168539 Z" id="Path"></path>
        </g>
    </g>
</svg>