<?xml version="1.0" encoding="UTF-8"?>
<svg width="250px" height="250px" viewBox="0 0 250 250" version="1.1" xmlns="http://www.w3.org/2000/svg" xmlns:xlink="http://www.w3.org/1999/xlink">
    <!-- Generator: Sketch 55.2 (78181) - https://sketchapp.com -->
    <title>kebab</title>
    <desc>Created with Sketch.</desc>
    <g id="kebab" stroke="none" stroke-width="1" fill="none" fill-rule="evenodd">
        <rect id="Rectangle" stroke="#212121" stroke-width="8" x="17" y="19" width="217" height="217" rx="40"></rect>
        <path d="M185,68.7086093 L181.02649,65 L173.874172,72.1523179 C170.960265,69.7682119 167.516556,68.4437086 164.072848,68.4437086 C160.629139,68.4437086 157.18543,69.7682119 154.536424,72.4172185 C151.622517,75.5960265 150.298013,79.5695364 150.827815,83.5430464 L147.384106,80.0993377 C144.470199,77.1854305 139.437086,77.1854305 136.523179,80.0993377 L136.258278,80.3642384 C133.344371,83.2781457 133.344371,88.3112583 136.258278,91.2251656 L138.112583,93.0794702 C136.523179,92.8145695 135.198675,92.5496689 133.609272,92.5496689 C128.84106,92.5496689 124.337748,94.4039735 120.629139,98.1125828 C116.390728,102.350993 114.536424,107.384106 115.066225,112.94702 C115.066225,113.741722 115.331126,114.536424 115.596026,115.331126 L113.741722,113.476821 C110.827815,110.562914 105.794702,110.562914 102.880795,113.476821 L102.615894,113.741722 C99.7019868,116.655629 99.7019868,121.688742 102.615894,124.602649 L104.470199,126.456954 C102.880795,126.192053 101.556291,125.927152 99.9668874,125.927152 C95.1986755,125.927152 90.6953642,127.781457 86.986755,131.490066 C82.7483444,135.728477 80.8940397,140.761589 81.4238411,146.324503 C81.4238411,147.119205 81.6887417,147.913907 81.9536424,148.708609 L80.0993377,146.854305 C77.1854305,143.940397 72.1523179,143.940397 69.2384106,146.854305 L68.9735099,147.119205 C66.0596026,150.033113 66.0596026,155.066225 68.9735099,157.980132 L78.5099338,167.516556 L65,181.02649 L68.7086093,184.735099 L81.9536424,171.754967 L91.4900662,181.291391 C93.0794702,182.880795 94.9337748,183.675497 97.0529801,183.675497 C99.1721854,183.675497 101.02649,182.880795 102.615894,181.291391 L102.880795,181.02649 C105.794702,178.112583 105.794702,173.07947 102.880795,170.165563 L101.02649,168.311258 C102.350993,168.576159 103.940397,168.84106 105.264901,168.84106 C110.033113,168.84106 114.536424,166.986755 118.245033,163.278146 C122.483444,159.039735 124.337748,154.006623 123.807947,148.443709 C123.807947,147.649007 123.543046,146.854305 123.278146,145.794702 L125.397351,147.913907 C126.986755,149.503311 128.84106,150.298013 130.960265,150.298013 C133.07947,150.298013 134.933775,149.503311 136.523179,147.913907 L136.788079,147.649007 C139.701987,144.735099 139.701987,139.701987 136.788079,136.788079 L134.933775,134.933775 C136.258278,135.198675 137.847682,135.463576 139.172185,135.463576 C143.940397,135.463576 148.443709,133.609272 152.152318,129.900662 C156.390728,125.662252 158.245033,120.629139 157.715232,115.066225 C157.715232,114.271523 157.450331,113.476821 157.18543,112.417219 L159.304636,114.536424 C160.89404,116.125828 162.748344,116.92053 164.86755,116.92053 C166.986755,116.92053 168.84106,116.125828 170.430464,114.536424 L170.695364,114.271523 C172.284768,112.682119 173.07947,110.827815 173.07947,108.708609 C173.07947,106.589404 172.284768,104.735099 170.695364,103.145695 L166.986755,99.4370861 C167.516556,99.4370861 168.046358,99.4370861 168.311258,99.4370861 C171.754967,99.4370861 175.198675,98.1125828 177.847682,95.4635762 C183.145695,90.1655629 183.145695,82.4834437 178.377483,76.3907285 L185,68.7086093 Z M98.9072848,177.317881 L98.9072848,177.317881 C97.5827815,178.642384 95.9933775,178.642384 95.1986755,177.582781 L72.4172185,154.801325 C71.3576159,153.741722 71.3576159,152.152318 72.4172185,151.357616 L72.6821192,151.092715 C73.2119205,150.562914 73.7417219,150.298013 74.5364238,150.298013 C75.0662252,150.298013 75.8609272,150.562914 76.3907285,151.092715 L99.1721854,173.874172 C99.7019868,174.668874 99.7019868,176.258278 98.9072848,177.317881 Z M114.271523,159.304636 C111.622517,161.953642 108.443709,163.278146 105,163.278146 C100.761589,163.278146 96.2582781,161.15894 92.5496689,157.450331 C89.1059603,154.006623 86.986755,150.033113 86.7218543,146.324503 C86.192053,142.350993 87.781457,138.642384 90.6953642,135.728477 C93.3443709,133.07947 96.5231788,131.754967 99.9668874,131.754967 C104.205298,131.754967 108.708609,133.874172 112.417219,137.582781 C115.860927,141.02649 117.980132,145 118.245033,148.708609 C118.509934,152.417219 117.18543,156.125828 114.271523,159.304636 Z M132.549669,143.675497 L132.549669,143.675497 C131.490066,144.735099 129.635762,144.735099 128.84106,143.940397 L106.059603,121.15894 C105,120.099338 105,118.509934 106.059603,117.715232 L106.324503,117.450331 C106.854305,116.92053 107.384106,116.655629 108.178808,116.655629 C108.708609,116.655629 109.503311,116.92053 110.033113,117.450331 L132.81457,140.231788 C133.609272,141.02649 133.609272,142.615894 132.549669,143.675497 Z M147.913907,125.397351 C145.264901,128.046358 142.086093,129.370861 138.642384,129.370861 C134.403974,129.370861 129.900662,127.251656 126.192053,123.543046 C122.748344,120.099338 120.629139,116.125828 120.364238,112.417219 C119.834437,108.443709 121.423841,104.735099 124.337748,101.821192 C126.986755,99.1721854 130.165563,97.8476821 133.609272,97.8476821 C137.847682,97.8476821 142.350993,99.9668874 146.059603,103.675497 C149.503311,107.119205 151.622517,111.092715 151.887417,114.801325 C152.417219,118.774834 150.827815,122.483444 147.913907,125.397351 Z M166.192053,109.768212 L166.192053,109.768212 C165.13245,110.827815 163.278146,110.827815 162.483444,110.033113 L139.701987,87.2516556 C138.642384,86.192053 138.642384,84.602649 139.701987,83.807947 L139.966887,83.5430464 C140.496689,83.013245 141.02649,82.7483444 141.821192,82.7483444 C142.615894,82.7483444 143.145695,83.013245 143.675497,83.5430464 L166.456954,106.324503 C166.986755,106.854305 167.251656,107.384106 167.251656,108.178808 C166.986755,108.708609 166.721854,109.238411 166.192053,109.768212 Z M173.609272,91.2251656 C169.900662,94.9337748 164.337748,94.4039735 159.834437,89.9006623 C157.715232,87.781457 156.390728,85.1324503 156.125828,82.7483444 C155.860927,80.3642384 156.655629,77.9801325 158.509934,76.1258278 C160.099338,74.5364238 162.218543,73.4768212 164.337748,73.4768212 C166.986755,73.4768212 169.900662,74.8013245 172.284768,77.1854305 C175.728477,80.8940397 178.112583,86.7218543 173.609272,91.2251656 Z" id="Shape" fill="#212121" fill-rule="nonzero"></path>
    </g>
</svg>