<?xml version="1.0" encoding="UTF-8"?>
<svg width="250px" height="250px" viewBox="0 0 250 250" version="1.1" xmlns="http://www.w3.org/2000/svg" xmlns:xlink="http://www.w3.org/1999/xlink">
    <!-- Generator: Sketch 55.2 (78181) - https://sketchapp.com -->
    <title>pie</title>
    <desc>Created with Sketch.</desc>
    <g id="pie" stroke="none" stroke-width="1" fill="none" fill-rule="evenodd">
        <rect id="Rectangle" stroke="#212121" stroke-width="8" x="17" y="19" width="217" height="217" rx="40"></rect>
        <g id="Group" transform="translate(75.000000, 74.000000)" fill="#212121" fill-rule="nonzero">
            <path d="M2.72727273,82.3863636 C5.79545455,87.7272727 8.18181818,93.2954545 9.31818182,99.4318182 C9.54545455,101.022727 11.4772727,101.704545 12.8409091,101.477273 C29.8863636,97.9545455 69.2045455,86.1363636 74.0909091,84.3181818 C80.4545455,82.7272727 86.5909091,79.8863636 89.4318182,73.6363636 C91.1363636,70 91.3636364,65.9090909 91.8181818,62.0454545 C92.2727273,57.7272727 92.7272727,53.4090909 93.2954545,49.0909091 C93.8636364,48.6363636 94.5454545,48.1818182 95.1136364,47.7272727 C97.9545455,45.4545455 100.454545,42.0454545 98.8636364,38.2954545 C97.2727273,34.4318182 93.1818182,33.75 89.5454545,32.7272727 C87.1590909,32.0454545 85.1136364,30.7954545 83.75,28.6363636 C82.6136364,26.9318182 82.2727273,24.7727273 80.9090909,23.1818182 C78.4090909,20.1136364 74.8863636,20.2272727 71.25,20.1136364 C68.4090909,20 67.2727273,19.4318182 66.1363636,16.8181818 C65.3409091,15.1136364 64.6590909,13.4090909 63.2954545,12.0454545 C60.4545455,9.31818182 56.4772727,9.43181818 52.8409091,9.20454545 C50.4545455,9.09090909 48.1818182,8.63636364 46.1363636,7.38636364 C44.0909091,6.13636364 43.5227273,3.97727273 41.9318182,2.27272727 C35.4545455,-4.43181818 27.9545455,6.81818182 27.2727273,13.9772727 C26.1363636,15.5681818 22.5,22.2727273 20.7954545,26.3636364 C17.8409091,33.1818182 15.1136364,40.1136364 12.2727273,47.0454545 C9.54545455,53.75 6.81818182,60.5681818 4.31818182,67.3863636 C2.84090909,71.1363636 1.02272727,75.1136364 0.227272727,79.0909091 C-0.340909091,80.9090909 1.02272727,82.2727273 2.72727273,82.3863636 Z M74.4318182,73.1818182 C73.4090909,77.3863636 72.5,79.6590909 68.0681818,80.9090909 C64.2045455,81.9318182 60.3409091,83.0681818 56.3636364,84.0909091 C42.2727273,87.9545455 28.2954545,91.8181818 14.0909091,95.2272727 C12.7272727,90.1136364 10.4545455,85.4545455 7.15909091,81.4772727 C11.5909091,80.3409091 16.0227273,78.8636364 20.3409091,77.3863636 C26.9318182,75.3409091 33.6363636,73.1818182 40.2272727,70.9090909 C52.8409091,66.7045455 66.3636364,62.7272727 78.0681818,56.25 C76.9318182,61.9318182 75.7954545,67.6136364 74.4318182,73.1818182 Z M86.25,69.7727273 C85,73.9772727 82.1590909,76.4772727 78.75,78.4090909 C78.8636364,78.1818182 82.6136364,62.2727273 83.9772727,54.5454545 C85.5681818,53.75 87.0454545,52.8409091 88.6363636,51.9318182 C88.1818182,57.9545455 87.8409091,64.2045455 86.25,69.7727273 Z M38.75,5.90909091 C40,6.93181818 40.4545455,9.31818182 41.7045455,10.5681818 C42.9545455,11.8181818 44.5454545,12.7272727 46.1363636,13.2954545 C48.0681818,14.0909091 50.1136364,14.3181818 52.1590909,14.5454545 C54.0909091,14.6590909 56.9318182,14.3181818 58.75,15.4545455 C60.5681818,16.5909091 60.7954545,18.8636364 61.7045455,20.6818182 C62.5,22.3863636 63.75,23.6363636 65.3409091,24.5454545 C66.9318182,25.3409091 68.75,25.5681818 70.5681818,25.5681818 C72.1590909,25.6818182 74.7727273,25.1136364 76.1363636,26.3636364 C77.6136364,27.6136364 77.9545455,30.3409091 78.9772727,31.9318182 C80.1136364,33.5227273 81.4772727,34.8863636 83.0681818,36.0227273 C84.8863636,37.2727273 86.8181818,37.8409091 88.8636364,38.4090909 C91.25,38.9772727 94.8863636,39.7727273 92.1590909,42.7272727 C89.5454545,45.5681818 85.4545455,47.7272727 81.7045455,49.5454545 C80.1136364,47.2727273 77.3863636,45.2272727 75.6818182,43.5227273 C71.25,39.2045455 66.4772727,35.3409091 61.4772727,31.7045455 C52.1590909,24.8863636 42.0454545,17.3863636 31.0227273,13.6363636 C33.0681818,9.20454545 35.6818182,3.40909091 38.75,5.90909091 Z M9.09090909,69.4318182 C11.7045455,62.5 14.3181818,55.6818182 17.0454545,48.8636364 C20.9090909,39.2045455 25,29.6590909 28.4090909,19.8863636 C28.5227273,19.8863636 28.5227273,19.8863636 28.6363636,20 C38.9772727,23.2954545 48.5227273,30.5681818 57.3863636,36.5909091 C62.1590909,39.8863636 66.8181818,43.2954545 71.5909091,46.5909091 C73.1818182,47.7272727 75,48.9772727 76.4772727,50.3409091 C76.8181818,50.6818182 77.0454545,50.9090909 77.3863636,51.25 C65,57.7272727 51.25,62.0454545 38.0681818,66.3636364 C31.7045455,68.5227273 25.2272727,70.5681818 18.75,72.6136364 C14.6590909,73.8636364 10.6818182,75.3409091 6.59090909,76.3636364 C7.27272727,73.8636364 8.29545455,71.5909091 9.09090909,69.4318182 Z" id="Shape"></path>
            <path d="M26.5909091,44.2045455 C28.6363636,43.2954545 28.8636364,40.5681818 29.4318182,38.6363636 C30,36.7045455 30.7954545,34.6590909 31.0227273,32.6136364 C31.1363636,31.7045455 29.8863636,30.9090909 29.0909091,31.4772727 C27.2727273,32.7272727 26.0227273,34.7727273 24.8863636,36.7045455 C23.75,38.75 22.1590909,41.1363636 23.4090909,43.4090909 C24.0909091,44.5454545 25.4545455,44.7727273 26.5909091,44.2045455 Z" id="Path"></path>
            <path d="M37.8409091,50.3409091 C39.6590909,48.9772727 41.1363636,47.6136364 42.5,45.7954545 C43.6363636,44.4318182 45.2272727,42.5 45.1136364,40.5681818 C45,39.7727273 44.4318182,39.3181818 43.6363636,39.4318182 C42.0454545,39.7727273 40.7954545,41.3636364 39.4318182,42.2727273 C37.9545455,43.2954545 36.3636364,44.3181818 34.8863636,45.2272727 C33.5227273,46.0227273 33.0681818,47.8409091 33.8636364,49.2045455 C34.5454545,50.5681818 36.4772727,51.25 37.8409091,50.3409091 Z" id="Path"></path>
            <path d="M48.6363636,58.1818182 C50.4545455,57.8409091 52.2727273,56.7045455 53.9772727,55.7954545 C55.6818182,55 56.9318182,53.8636364 58.2954545,52.6136364 C59.2045455,51.8181818 58.4090909,50.4545455 57.3863636,50.4545455 C55.4545455,50.3409091 53.75,50.4545455 51.8181818,50.9090909 C49.8863636,51.3636364 47.8409091,51.7045455 46.25,52.7272727 C43.1818182,54.5454545 45.3409091,58.75 48.6363636,58.1818182 Z" id="Path"></path>
            <path d="M62.3863636,72.8409091 C64.5454545,72.9545455 66.5909091,72.5 68.6363636,71.9318182 C70,71.4772727 70.7954545,70 70.2272727,68.6363636 C69.7727273,67.5 67.9545455,66.5909091 66.8181818,67.5 C65.2272727,68.6363636 63.5227273,69.6590909 61.8181818,70.5681818 C60.6818182,71.25 61.25,72.8409091 62.3863636,72.8409091 Z" id="Path"></path>
            <path d="M50,82.8409091 C52.1590909,82.3863636 54.3181818,81.8181818 56.4772727,81.4772727 C59.6590909,80.9090909 57.9545455,75.3409091 54.6590909,77.0454545 C52.7272727,78.0681818 50.7954545,78.8636364 48.8636364,79.7727273 C46.9318182,80.5681818 48.2954545,83.1818182 50,82.8409091 Z" id="Path"></path>
            <path d="M36.5909091,76.3636364 C35.6818182,76.9318182 34.7727273,77.5 33.8636364,78.0681818 C32.1590909,79.3181818 33.1818182,81.8181818 35.3409091,81.4772727 C36.4772727,81.25 37.5,81.0227273 38.5227273,80.6818182 C39.6590909,80.3409091 40.9090909,80.1136364 41.9318182,79.5454545 C44.5454545,78.0681818 42.8409091,73.8636364 39.8863636,74.6590909 C38.5227273,75.1136364 37.5,75.7954545 36.5909091,76.3636364 Z" id="Path"></path>
            <path d="M21.9318182,83.5227273 C20.3409091,85 18.6363636,86.1363636 16.7045455,86.9318182 C15.9090909,87.2727273 15.6818182,88.4090909 16.0227273,89.0909091 C16.3636364,89.8863636 17.1590909,90.2272727 18.0681818,90.1136364 C20.5681818,89.6590909 22.9545455,88.8636364 25,87.5 C28.1818182,85.5681818 24.6590909,81.0227273 21.9318182,83.5227273 Z" id="Path"></path>
        </g>
    </g>
</svg>