<?xml version="1.0" encoding="UTF-8"?>
<svg width="250px" height="250px" viewBox="0 0 250 250" version="1.1" xmlns="http://www.w3.org/2000/svg" xmlns:xlink="http://www.w3.org/1999/xlink">
    <!-- Generator: Sketch 55.2 (78181) - https://sketchapp.com -->
    <title>rice</title>
    <desc>Created with Sketch.</desc>
    <g id="rice" stroke="none" stroke-width="1" fill="none" fill-rule="evenodd">
        <rect id="Rectangle" stroke="#212121" stroke-width="8" x="17" y="19" width="217" height="217" rx="40"></rect>
        <g transform="translate(56.000000, 55.000000)" fill="#212121" fill-rule="nonzero" id="Shape">
            <path d="M2.7046504,0.591303371 C0.530492876,0.869274157 -0.728721708,3.85360225 0.590090247,5.6028 L30.2922845,47.3651618 C29.9868957,47.6022337 29.6860121,47.845582 29.4071196,48.1021438 C27.8327598,49.5503888 26.7641933,51.2983753 26.0139883,53.1136247 C21.7673369,54.3134247 18.0403544,55.6207258 15.2444836,57.2407303 C12.0962407,59.0648831 9.44173843,61.5229685 9.44173843,65.1018719 C9.44173843,67.0069888 10.330891,68.7362247 11.5071222,70.0641798 C12.674867,71.3828539 14.1273276,72.4460674 15.8837708,73.4051461 C17.9329587,94.316427 30.2064802,112.813258 47.2087676,121.947865 L47.2087676,131.135483 C47.2087676,133.203865 47.8247142,135.316607 49.3233276,136.834899 C50.8219396,138.353191 52.94842,138.996719 55.0768982,138.996719 L95.9911793,138.996719 C98.1196575,138.996719 100.246138,138.353191 101.74475,136.834899 C103.243363,135.316607 103.859311,133.203865 103.859311,131.135483 L103.859311,121.996944 C121.398461,112.625438 133.879463,93.3125169 135.331835,71.5873483 C135.342217,71.4394831 135.342217,71.2922472 135.331835,71.1451685 C135.713016,70.8094831 136.080573,70.4404494 136.413703,70.0641798 C137.589933,68.7362247 138.479087,67.0069888 138.479087,65.1018719 C138.479087,61.8247393 136.266007,59.2366742 133.413978,57.338982 C130.814963,55.6096674 127.302889,54.2455011 123.136232,53.0153573 C121.785929,50.9505146 120.37494,49.2460697 118.612057,48.1021438 C116.538076,46.7563348 114.130896,46.2351101 111.727442,46.2351101 C108.315467,46.2351101 105.470235,47.3356674 103.121673,48.5443236 C99.7633173,44.6339348 94.1350656,42.2418067 87.5329393,41.7640921 C86.1002187,34.5317079 79.8568007,28.875173 72.3376099,28.9405798 C65.2334798,29.0024 59.4472609,34.3099573 57.5356883,41.9114854 C56.3672656,41.6230225 55.1910753,41.460182 54.0933809,41.5675573 C51.7737193,41.7944517 49.8276894,42.8904 48.3889865,44.1715573 C48.0775636,44.4488831 47.8378631,44.7580315 47.6021739,45.0559483 L27.9810213,7.02762247 C27.4175434,5.90743371 26.132584,5.19420449 24.8829456,5.30799775 C22.8153391,5.48359551 21.3951413,8.09888989 22.3749778,9.92642472 L40.3733274,44.8102876 C39.5396982,44.6960854 38.6562966,44.6429955 37.7178342,44.6628944 C37.1956263,44.6739056 36.6913746,44.7358831 36.1933836,44.8102876 L5.70437535,1.96701573 C5.06143085,1.00460225 3.85422265,0.450973034 2.7046504,0.591303371 Z M72.4359622,35.2292162 C77.1363364,35.1886067 81.5698234,39.4890135 81.7793672,44.3189663 C81.7800703,44.3351685 81.7787616,44.352 81.7793672,44.3680449 C81.7337335,44.5138652 81.6655425,44.7910652 81.5334894,45.0067596 C81.3924984,45.2370517 81.2073917,45.4340899 81.090907,45.5963483 C81.0326733,45.6775169 80.9785137,45.7459438 80.9433721,45.7928831 C80.9258013,45.8163213 80.9089699,45.8224562 80.8941991,45.8419618 C80.8868058,45.8514 80.9088283,45.8715348 80.8941991,45.8910404 C80.8795699,45.9107034 80.698056,46.2339933 80.6974944,46.2349685 C79.6697088,46.190609 78.6447688,46.273036 77.6485948,46.5297708 C73.9787638,47.4757303 70.9799292,50.4639124 69.4362326,54.5383056 C68.856609,56.0819079 69.7351106,58.0132787 71.2801616,58.5921551 C72.825211,59.1710315 74.7581674,58.293027 75.3373301,56.7492674 C76.3217755,54.1509303 77.7659243,52.9975506 79.22222,52.6221618 C80.6785173,52.246773 82.4462124,52.6023416 84.4840335,54.3417865 C85.7456427,55.4226966 87.8779811,55.2590539 88.9595676,53.9983146 C90.0411542,52.737591 89.8768933,50.6071685 88.6148027,49.5268247 C88.0662906,49.058627 87.4813029,48.6726989 86.893649,48.2985213 C86.9456063,48.2135775 86.9851052,48.0899685 87.0411838,48.0037348 C93.1932919,48.5569393 98.0945818,51.5137708 99.3843137,53.8013236 C99.400516,53.8178404 99.4169227,53.8342 99.4334867,53.8504022 C99.500907,54.0209191 99.5832867,54.1855213 99.6793661,54.3417236 C99.6955683,54.3582404 99.7119751,54.3746 99.7285391,54.3908022 C99.7672987,54.465836 99.7882829,54.463791 99.8268852,54.5381955 C98.372724,54.9551438 96.9624742,55.6327281 95.6961175,56.5526225 C94.3569027,57.5300742 94.0287002,59.6369483 95.007242,60.9748292 C95.9857822,62.3126944 98.0945834,62.6402629 99.4334789,61.6623708 C100.94555,60.564 102.607641,60.1873528 103.957654,60.4340674 C105.307668,60.680782 106.444257,61.3662 107.301611,63.2346022 C107.884897,64.8712022 109.9933,65.7619955 111.574845,65.040036 C113.156391,64.3180764 113.862522,62.1424607 113.006005,60.6306022 C111.697149,57.778236 109.460582,55.7679461 106.908203,54.7838562 C106.788841,54.3564944 106.660128,54.2930854 106.514797,53.9486225 C108.216557,53.2119236 110.169264,52.5237843 111.727434,52.5237843 C113.324763,52.5237843 114.229124,52.7486652 115.169742,53.3590337 C116.085905,53.9535303 117.138283,55.0613551 118.36617,57.0930697 C118.440291,57.2130921 118.522498,57.3280337 118.612049,57.4369978 C118.627858,57.4700315 118.644265,57.5027506 118.661222,57.5353124 C118.677424,57.5518292 118.693831,57.5681888 118.710395,57.584391 C118.756988,57.6517169 118.806209,57.7173124 118.85793,57.7809258 C119.495668,58.7201685 120.255155,60.9588315 118.612051,63.2346022 C117.646486,64.5723258 117.986184,66.6672135 119.3251,67.6317978 C120.664016,68.5965393 122.760771,68.257236 123.726336,66.9195281 C125.241887,64.8204562 125.80962,62.6461303 125.840896,60.5814607 C127.53011,61.2739888 128.90701,61.9202067 129.922489,62.5958876 C131.884198,63.9011596 132.184848,64.8294697 132.184848,65.1016202 C132.184848,65.1786989 132.211004,65.3581506 131.741995,65.8877438 C131.272995,66.4172584 130.335882,67.119618 128.988147,67.8529663 C126.292679,69.3195056 121.990627,70.8440899 116.595841,72.0782921 C111.562903,73.2297528 105.542966,74.1888315 98.8925472,74.8789213 C96.9009103,69.7837079 93.5901589,66.0154427 89.4507899,64.3646382 C88.4117115,63.9502539 87.3581674,63.6821461 86.2543618,63.5785303 C82.9429434,63.2676674 79.4407915,64.3936607 76.6159013,66.8212135 C75.3671045,67.9017303 75.2148254,70.0199775 76.2962593,71.2677079 C77.3776917,72.5152809 79.4978721,72.6675506 80.746669,71.5870337 C83.0409418,69.6153933 85.0308892,69.3703146 87.1395252,70.2112584 C88.9023942,70.9144045 90.8007375,72.6489888 92.2538117,75.4684944 C86.4723213,75.8891236 80.3348771,76.1071461 73.9604065,76.1071461 C57.307331,76.1071461 42.1145404,74.5466966 31.3249717,72.0782921 C28.5792099,71.4501798 26.1096492,70.7475056 23.9977744,70.0147865 C24.6303196,69.3221798 25.5772764,68.7313483 26.7024438,68.4425393 C28.3136551,68.0289888 29.996109,68.2619551 31.128267,69.130427 C32.4104389,70.292427 34.6760431,70.0920225 35.7340939,68.7231685 C36.7921447,67.3544719 36.4133299,65.1137798 34.9639822,64.1681191 C33.5110229,63.0535303 31.87086,62.3851955 30.1939274,62.1045663 C29.9030106,61.3710607 29.848398,60.6070854 29.9480481,59.8444787 C30.067929,58.9270539 30.5714115,57.9652382 30.6365099,57.7809258 C31.0924396,57.2991685 31.3898074,56.670018 31.4724987,56.0121753 C31.7974701,55.0014697 32.5727492,53.6986045 33.6362348,52.7203191 C33.7339045,52.6304989 33.8304321,52.558391 33.9312888,52.4746584 L42.7337604,64.8559596 C42.6116773,65.3537618 42.5324169,65.8538607 42.4878827,66.3790337 C42.3462782,68.0253708 43.7167712,69.6522022 45.3646672,69.793618 C47.0125663,69.935191 48.6407694,68.5658652 48.7823865,66.9195281 C48.9268382,65.2159326 49.5742894,64.473791 50.8969465,63.9224584 C52.2196052,63.3711101 54.3949739,63.2665191 57.0439249,64.3155124 C58.5760315,64.9333371 60.5326951,64.1024607 61.1507431,62.5715685 C61.7687897,61.0406921 60.9367398,59.0859461 59.4043643,58.468782 C57.552084,57.7352607 55.6846083,57.3309438 53.8966715,57.2404787 L50.8477719,51.2954809 C50.8714303,51.2435708 50.8712258,51.1996831 50.8969449,51.1480876 C51.2993804,50.3407596 51.9411153,49.4417236 52.6180987,48.8388742 C53.295082,48.236009 53.9492139,47.8837281 54.7326587,47.8070899 C55.5161049,47.7304831 56.5470256,47.9049326 58.1257915,48.888 C59.989064,50.0567011 62.8690796,48.5298831 62.9450209,46.3331258 C63.2071276,39.0640584 67.4850479,35.2722764 72.4359544,35.2292162 L72.4359622,35.2292162 Z M40.7667353,51.246591 C43.2412369,51.7389978 44.9602607,53.3072022 45.7334917,55.2754449 L47.4546454,58.616427 C47.1135503,58.8078022 46.7862634,59.0234809 46.4711297,59.2551416 L40.7667353,51.246591 Z M23.6043744,60.3851775 C23.5985542,61.1518584 23.6773946,61.9726045 23.8502521,62.7926584 C21.5530204,63.6525573 19.4836364,65.194209 18.1950339,67.4111011 C17.2764452,66.8504719 16.5473236,66.304 16.1788247,65.8879955 C15.7098263,65.3586382 15.7362422,65.1789191 15.7362422,65.1018719 C15.7362422,65.0123663 16.1271647,63.9858989 18.4409133,62.6452652 C19.7358016,61.8949753 21.5158622,61.1352 23.6043744,60.3851775 L23.6043744,60.3851775 Z M128.643924,74.9773933 C125.168466,100.823596 104.440689,121.702157 80.2549182,121.702157 L70.8131609,121.702157 C47.0666692,121.702157 26.6322724,101.427483 22.6208571,76.2057753 C24.8421915,76.9301573 27.2707447,77.5585843 29.9480544,78.1709663 C41.4207099,80.7957303 56.9195452,82.3964494 73.9604128,82.3964494 C91.001282,82.3964494 106.500116,80.7957303 117.972771,78.1709663 C122.078715,77.2317079 125.633414,76.2048315 128.643924,74.9773933 Z M35.8491519,85.4917079 C34.272689,85.5546292 32.8700211,86.9691011 32.8207411,88.5446517 C32.771458,90.1202022 34.083022,91.6191461 35.6524488,91.7806966 C46.2959613,93.6865843 59.5850256,94.9742697 73.9604128,94.9742697 C88.3358016,94.9742697 101.624864,93.6865843 112.268375,91.7806966 C113.944536,91.5582697 115.245434,89.7865618 114.954599,88.1222921 C114.663767,86.4581798 112.838935,85.2318427 111.186507,85.5900225 C100.956784,87.4219775 87.9581618,88.6852809 73.9604128,88.6852809 C59.9626638,88.6852809 46.9640413,87.4219775 36.7343169,85.5900225 C36.5413292,85.5381124 36.3434369,85.5050787 36.1442074,85.4924944 C36.04594,85.4924944 35.9474319,85.4924944 35.8491519,85.4924944 L35.8491519,85.4917079 Z M53.5032715,124.797416 C58.9586688,126.84991 64.7566398,127.991146 70.8131609,127.991146 L80.2549182,127.991146 C86.297002,127.991146 92.1202989,126.880584 97.5648061,124.846652 L97.5648061,131.135483 C97.5648061,132.08009 97.3554856,132.326112 97.2697506,132.412944 C97.1840202,132.499461 96.9670533,132.70773 95.9911793,132.70773 L55.0768982,132.70773 C54.1010243,132.70773 53.8840604,132.499775 53.798327,132.412944 C53.7125966,132.326427 53.5032715,132.08009 53.5032715,131.135483 L53.5032715,124.797416 Z"></path>
        </g>
    </g>
</svg>