<?xml version="1.0" encoding="UTF-8"?>
<svg width="250px" height="250px" viewBox="0 0 250 250" version="1.1" xmlns="http://www.w3.org/2000/svg" xmlns:xlink="http://www.w3.org/1999/xlink">
    <!-- Generator: Sketch 55.2 (78181) - https://sketchapp.com -->
    <title>sandwich</title>
    <desc>Created with Sketch.</desc>
    <g id="sandwich" stroke="none" stroke-width="1" fill="none" fill-rule="evenodd">
        <rect id="Rectangle" stroke="#212121" stroke-width="8" x="17" y="19" width="217" height="217" rx="40"></rect>
        <g id="Group" transform="translate(56.000000, 74.000000)" fill="#212121" fill-rule="nonzero">
            <path d="M75.1787522,1.01828696 C81.1068719,0.683258694 87.0492547,1.3430011 92.7595261,2.97016087 C100.516789,5.51385435 108.123157,8.81636304 114.302315,14.7316826 C118.596698,18.7419489 122.148655,23.4795158 124.794357,28.7258696 C126.896259,32.9430957 129.379067,36.9276935 130.642309,41.536387 C131.152805,43.1108428 131.237336,44.7923925 130.887309,46.4101065 C129.601591,50.9835109 131.960987,54.2678043 134.361059,57.5596457 C135.583952,59.1571179 136.912672,60.6707229 138.338261,62.0902587 C140.040009,63.7357466 140.390988,66.3336712 139.186889,68.3717391 C138.50073,69.8637537 137.598159,71.2463492 136.508339,72.47485 C135.150963,74.3270272 132.631199,74.8865922 130.617443,73.7830435 C129.642638,73.265457 128.525741,73.0795541 127.435837,73.2534783 C126.653396,73.2743797 125.941841,73.7120215 125.570246,74.4009098 C125.19865,75.089798 125.22373,75.9247903 125.636,76.5901348 C126.522209,79.113746 126.265636,81.898164 124.933185,84.2173348 C124.037238,85.9180502 122.860636,87.4553286 121.452967,88.7643826 C118.755187,91.8434528 114.265456,92.6036458 110.704422,90.5843065 C105.766926,88.2791457 100.794035,87.3953043 95.9324891,90.5871978 C93.0224522,92.4976348 89.6449978,92.8216739 86.4755804,93.8271783 C83.3988631,94.8709587 80.4563126,96.2747687 77.7091761,98.0093891 C71.0260783,102.020343 63.6158174,103.937065 55.9684087,105.258954 C48.4879652,106.552083 42.4644957,103.289626 36.6252022,99.5817413 C32.693713,97.0852522 28.376037,95.3027326 24.5652065,92.6324913 C21.1417292,90.205696 18.0926181,87.2899997 15.5151804,83.9784522 C14.3916652,82.5561283 12.9456174,81.391313 11.7930065,79.9888326 C9.87809893,77.8689056 8.8722617,75.0817787 8.99206304,72.2275522 C9.21428024,70.5483953 8.24831982,68.9380238 6.66228043,68.3435261 C1.3328,65.772913 0.624217391,64.2727522 1.47806522,58.2830652 C1.42905869,56.9148908 1.09518981,55.571983 0.497791304,54.3401478 C-0.575034783,50.3345804 0.549895652,47.8300565 4.54105217,46.9571413 C7.18778261,46.378363 8.15043478,45.4444261 7.56456522,42.7012326 C7.25183261,41.2366043 7.06450652,39.0758261 7.87378261,38.1569543 C11.3445196,34.2168065 12.8755565,28.5552826 19.0061109,26.9040891 C26.8540239,24.7903935 34.5482717,22.1639478 42.5798587,20.6688239 C49.8252696,19.3199543 56.8939152,17.2809457 62.9346413,12.7224848 C63.9899826,11.9262652 64.8773543,11.2387891 64.3508022,9.60855 C62.6440043,4.32417391 64.5781652,1.53602826 70.24395,1.04389783 C71.877263,0.902026087 73.5333413,1.02216739 75.1787522,1.01828696 Z M118.320178,44.7139913 C118.331966,39.6400949 117.171006,34.6321144 114.927917,30.0809478 C111.978145,24.5184687 107.2377,20.1140778 101.47372,17.5805304 C94.5661983,14.3070437 87.2349191,12.0154001 79.6927783,10.7721478 C75.7019109,10.0684652 75.749237,9.91743261 74.5654609,13.308187 C74.2801208,13.9846055 73.9320069,14.6327897 73.525687,15.2442348 C71.7333948,18.0268941 69.057818,20.1263752 65.9287391,21.2054348 C55.7050074,25.3203694 45.2048656,28.7120999 34.5058304,31.355587 C30.6084891,32.3725196 26.4505196,32.614187 23.422837,35.978463 C20.5094065,39.2161761 20.4980543,39.5591152 24.0765609,42.2226457 C27.3000913,44.6218348 31.4019543,45.9580283 33.9308261,49.0635478 C38.0834106,53.7967595 42.8748684,57.9286673 48.1671674,61.3402391 C51.6995548,64.1453789 56.4334348,64.9193033 60.6752391,63.385137 C72.4272652,59.4407891 84.3496652,55.9988587 95.9572022,51.6279522 C102.003018,49.3530878 108.528532,48.6551794 114.918696,49.6000065 C118.381002,50.0826109 118.353763,50.2729348 118.321,46.6408783 C118.315217,45.9985826 118.320178,45.356287 118.320178,44.7139913 Z M55.2140978,66.6237478 C53.6492724,66.9649915 52.0130362,66.6800938 50.655637,65.8300391 C46.2610065,63.0926283 41.3805152,60.7362457 38.0197543,56.8434239 C32.719537,50.7038304 26.163763,46.4187957 19.4743196,42.1745739 C18.8469674,41.7764717 17.9307283,41.4781652 18.3909783,40.3113413 C19.6603826,37.0924522 20.8952587,34.0256 24.0973174,31.9559739 C26.454944,30.6319719 29.0132972,29.7025962 31.671013,29.2046696 C43.8537978,25.997087 56.0883065,23.0053022 67.5259717,17.4975804 C69.2282043,16.6139901 70.6358412,15.2532024 71.5765217,13.5818413 C72.1507652,12.6775326 72.6262174,11.1587913 71.420087,10.674437 C70.112913,10.149437 67.9077913,9.55417826 67.2023587,11.2046261 C65.1392457,16.0323891 60.665637,17.5995826 56.5635457,19.5701739 C50.1999674,22.6273478 43.143237,23.2199435 36.3508022,24.766913 C29.478887,26.3318543 22.5678022,27.926287 16.324,31.3915 C14.2365161,32.4972454 12.8147085,34.5464538 12.5096985,36.8889377 C12.2046885,39.2314216 13.0543393,41.5763919 14.7890674,43.1798196 C16.9043059,45.3246989 19.2885285,47.1864814 21.8821978,48.7186761 C28.5420587,52.2894674 33.119237,58.1190978 38.3777587,63.2818261 C43.2252283,68.04105 48.3558022,73.2844913 56.4339848,71.0269152 C57.2115069,70.768438 58.0139257,70.5919713 58.8281522,70.5003935 C67.2136652,69.9884196 75.2879217,67.6578913 83.513363,66.2271674 C91.2585739,64.8799261 98.3455413,61.441587 105.452276,58.190437 C108.023589,57.0141326 110.667976,55.6269 113.541993,56.3651109 C115.766183,56.9363413 116.505641,55.8385891 116.754385,54.2067217 C117.062841,52.183037 115.442417,51.9741326 113.917863,51.7215239 C107.954952,50.8556614 101.868774,51.6415371 96.3213848,53.993663 C85.862137,58.0804304 74.9030435,60.6747826 64.4784304,64.8716174 C61.5468679,66.0972344 58.3907693,66.6941361 55.2140978,66.6237478 Z M10.3623587,43.0753522 C10.6699478,47.869363 11.5303087,52.3651739 15.1557304,55.5671261 C18.2765587,58.3234978 21.1966391,61.2875261 24.4432696,63.9343022 C29.7332913,68.2466978 34.7143543,72.9672543 40.4869652,76.6345848 C44.3609478,79.0956783 48.2674652,81.8163957 53.2524087,81.4990065 C58.9110413,81.1388109 64.1914,79.0828652 69.6294413,77.7558326 C76.3948957,76.1047457 82.8229957,73.3403543 89.4665435,71.3083913 C94.2846435,69.8347239 98.9675217,67.6925261 104.114804,67.3972478 C106.74513,67.2464739 109.513813,66.9687565 111.579924,68.9136 C113.287315,70.5209674 114.646654,69.9607848 116.164924,68.9375826 C117.171829,68.3075439 118.135803,67.6113651 119.050491,66.853637 C121.836111,64.3779804 125.419837,62.4843739 125.834891,57.740337 C125.109615,58.538063 124.630146,59.0822978 124.133115,59.6097174 C120.707954,63.2440413 118.063704,63.3048043 114.512985,59.8102217 C113.628384,58.8603168 112.299354,58.4628779 111.038489,58.7711935 C109.190371,59.202486 107.404618,59.8671082 105.724226,60.7490587 C99.0461004,64.223598 91.962402,66.8555172 84.6356913,68.5844174 C76.02,70.3431826 67.2916696,71.5454174 58.6598478,73.2321739 C53.186573,74.6000612 47.3883844,73.4511613 42.8502717,70.099537 C39.780883,67.8231414 36.8891548,65.3164951 34.2001283,62.6013043 C31.0075196,59.3728739 28.4246109,55.5089348 24.2741739,53.272313 C20.5248985,51.1869909 17.0294243,48.6749737 13.8574435,45.7863457 C12.816087,44.8644 12.0834761,43.4502174 10.3623587,43.0753522 L10.3623587,43.0753522 Z M117.948478,59.7877304 C120.017739,59.874987 120.411459,59.9584696 121.660259,58.6232804 C126.134689,53.839587 128.908043,48.3597435 127.489585,41.5784783 C126.386035,36.3017565 122.882398,32.1289652 120.60863,27.3861913 C120.042973,25.7455396 119.232079,24.2000281 118.203537,22.8022413 C111.391285,15.4315686 102.898316,9.81679169 93.4481587,6.4362413 C88.0977239,4.58745 82.5591413,4.33785435 77.0546761,3.86894565 C73.932463,3.60303696 70.6587152,3.19551522 67.6055435,4.58883478 C66.6861696,5.0084087 65.7421891,5.43388696 65.9444435,6.74748261 C66.1785935,8.26948043 67.3690196,7.57226522 68.1144435,7.59755652 C70.932963,7.69296957 73.8057478,7.09586957 76.537863,7.27342609 C82.2242121,7.89873515 87.8237183,9.15248324 93.2337913,11.0117 C99.5900957,12.8873652 105.971737,14.9969217 110.759828,19.7753957 C117.394632,26.0081277 121.153978,34.7089134 121.145348,43.8120717 C121.145865,49.4067913 118.792739,54.417863 117.948478,59.7877304 Z M77.0740174,95.592213 C75.2756717,94.9047217 74.2955348,96.1208957 73.0255065,95.7381022 C70.448024,95.1128903 67.7577925,95.1183609 65.1828739,95.75405 C60.5207217,96.5950848 56.0389413,96.4690391 53.4421391,91.4377587 C52.8717761,90.3325652 52.1750022,91.1218761 51.6513413,91.4793174 C49.2931923,92.8553314 46.7653951,93.917401 44.1321087,94.6385696 C41.1566986,95.667777 37.8560886,94.9672258 35.5552674,92.8181435 C32.3110155,89.9860897 29.712614,86.4905078 27.9357217,82.5677087 C27.697498,81.6625486 26.9157031,81.0050585 25.9831022,80.9255543 C21.9548152,81.23465 20.5868783,78.3283717 18.9935565,75.5020761 C17.5541073,72.3876421 14.7156615,70.1464151 11.3522957,69.468563 C11.3543043,73.2165 12.0121674,76.5510109 14.8282978,79.2059435 C16.2875239,80.581687 17.5762696,82.1413783 19.0624761,83.4848152 C21.2864719,85.7681567 23.6630596,87.8977297 26.1758152,89.8588174 C29.9408261,92.4427304 34.1737565,94.1451 37.9499522,96.6952 C44.4339152,101.074004 51.2612587,104.097548 59.4610891,101.937393 C65.5692424,100.549831 71.4843133,98.4188852 77.0740174,95.592213 L77.0740174,95.592213 Z M79.3274391,93.5297391 C83.8424391,91.5789913 89.0225152,91.5265217 93.1301609,89.0105696 C99.6285652,85.0304913 105.881665,84.7615696 112.425813,88.4103348 C113.609872,89.1177673 115.040984,89.2818132 116.354411,88.860663 C120.626754,87.6148609 122.50242,84.5172543 123.483196,80.4333478 C123.996433,78.2962935 123.549239,77.3525565 121.36813,77.6784826 C118.503994,78.0219556 115.643033,77.0137355 113.627043,74.9504761 C111.376239,72.8346348 110.521402,73.3932043 108.800528,75.4109848 C103.641072,81.4616935 97.9163957,83.4103109 92.2287891,80.995037 C90.7122109,80.2177016 88.8704676,80.4796488 87.630763,81.6490043 C86.474412,82.6763949 85.4411623,83.8344755 84.551737,85.1000196 C82.5030196,87.6993478 82.5754696,91.595563 79.3274391,93.5297391 Z M74.1113587,93.2119848 C74.9231457,92.9173304 75.5289043,92.7366696 76.1020217,92.4825543 C78.2459795,91.412897 79.9193222,89.5890629 80.8008478,87.3611413 C82.1488348,84.5767696 83.3883674,81.6044022 85.9193848,79.7085739 C87.0734109,78.8440587 88.067487,78.5096109 87.2292065,76.8595435 C86.4002239,75.2274326 85.3819217,75.3583783 83.8408261,75.8619522 C76.0320826,78.4131783 68.3124826,81.2682348 60.2053109,82.8461109 C58.8590739,83.1081239 57.1207457,83.1678826 56.2375435,84.3437609 C55.0109819,86.1104562 54.9425944,88.4345506 56.0631522,90.2703109 C56.7171569,91.8079653 58.1367565,92.8841185 59.7939087,93.0984783 C64.6404348,93.9155457 69.4500739,90.6576087 74.1113587,93.2119848 L74.1113587,93.2119848 Z M6.7976087,48.5665174 C3.41840435,48.7822087 2.06399565,50.9446152 3.61236522,54.3914913 C4.45962191,55.7896853 4.64246578,57.4918503 4.11149565,59.0380913 C2.52118696,62.6132804 3.96962391,64.4403565 8.53838696,66.0491087 C9.59004514,66.3331908 10.6655465,66.5201997 11.7513717,66.6077848 C14.2818171,66.8207035 16.6364379,67.9884957 18.3372913,69.8741217 C19.9587196,71.7486609 21.2903935,73.8017304 22.7630565,75.758687 C23.7414435,77.0587239 24.7778391,77.951513 26.3921,77.540187 C28.5347087,76.9943087 29.3706913,74.98155 30.5431761,73.3923826 C30.7550935,73.1051391 30.2907043,72.8582522 30.0006913,72.6185174 C26.1550739,69.4398022 22.2824304,66.2896043 18.5327739,62.9998935 C14.2970891,59.2837152 9.99277391,55.577337 8.5694,49.7233435 C8.52287537,49.3169385 8.29775915,48.9523706 7.95524259,48.728737 C7.61272603,48.5051302 7.18840132,48.4456426 6.7976087,48.5665174 L6.7976087,48.5665174 Z M137.063135,66.4727152 C137.136137,65.6884511 136.885566,64.9084062 136.369496,64.3133674 C134.482676,61.9890022 132.654717,59.6139174 130.697563,57.3505587 C129.26658,55.695987 129.047009,57.218487 128.667852,58.2497239 C127.421377,61.7720053 125.17603,64.8550062 122.206107,67.1221022 C120.244617,68.726201 118.197138,70.2221751 116.072783,71.6033652 C115.598472,71.8924957 114.764087,72.0918435 115.424522,72.99705 C117.026639,75.1926 121.643215,75.302713 123.193837,73.1620217 C124.761425,70.6591503 127.94495,69.7114165 130.626193,70.949413 C134.26872,72.303213 137.065265,70.4154348 137.063135,66.4727152 Z M35.4208065,76.6688391 C34.6964587,76.1807109 34.0140652,75.5626413 33.1521826,76.1415413 C31.8800968,76.8463395 30.9862286,78.079154 30.7117891,79.5073087 C30.4373497,80.9354634 30.810622,82.4117763 31.7308783,83.537863 C32.7912705,85.2354704 33.9780715,86.8507633 35.2812022,88.3700239 C39.6698978,93.3478152 49.4364196,92.3158935 52.6807674,86.5657891 C52.9990239,86.0018326 53.6286435,85.2781848 52.7921283,84.6130326 C52.4602402,84.3559967 52.0366381,84.248067 51.6222184,84.3149508 C51.2077987,84.3818347 50.8396572,84.6175451 50.6054804,84.9659391 C50.1041061,85.813757 49.4875003,86.5878943 48.7733065,87.2662 C42.2875783,90.6411435 36.3303957,87.9896043 33.6358978,81.1835957 C32.923799,79.4435278 33.711332,77.4515381 35.4208065,76.6688391 Z M97.4127761,79.2174326 C99.0385276,79.1214969 100.634435,78.7383548 102.126546,78.0857609 C104.094734,76.9556148 105.840516,75.4762847 107.278348,73.7202565 C107.699312,73.4226761 107.960305,72.948261 107.986297,72.4333923 C108.012289,71.9185236 107.800401,71.4202363 107.411546,71.0817739 C106.236763,70.3266109 106.524372,71.9501848 106.031328,72.3562 C103.564072,74.3877217 101.339807,76.7763196 97.5232848,76.1104217 C95.8287925,76.0191472 94.2172274,75.3479394 92.9589196,74.2093891 C91.9355722,73.2310478 90.3317657,73.2047465 89.2768891,74.1490065 C88.3204913,75.0727022 89.8183696,75.9232326 90.4610609,76.6783957 C92.1353239,78.6460804 94.4837935,78.941237 97.4127913,79.2174326 L97.4127761,79.2174326 Z M43.8562783,85.9142109 C44.9798638,85.9855798 46.1049084,85.7993884 47.1455935,85.3698391 C47.7088708,85.3534319 48.1711361,84.9188748 48.2222848,84.3576848 C48.1860292,83.8803645 47.7973377,83.5062554 47.3189804,83.4882696 C43.9834145,82.2930649 40.7989967,80.7120431 37.8305565,78.7773913 C37.5505363,78.4043433 37.0455936,78.2817507 36.6256891,78.4848674 C36.2211255,78.8836051 36.0772833,79.4770661 36.2543848,80.016787 C36.7336565,82.8507522 40.5871717,85.8891022 43.8562783,85.9142109 Z M103.372607,70.6362087 C100.914663,70.130763 98.749487,71.0256522 96.557437,71.6569 C96.0906975,71.7466786 95.7636133,72.1696299 95.7941174,72.6439457 C95.8829343,72.8795826 96.0656367,73.0677414 96.2985587,73.1634522 C98.4033522,74.1762457 101.932463,72.9683652 103.372607,70.6362087 Z" id="Shape"></path>
            <path d="M40.7526457,42.0003043 C39.7862736,42.5151504 38.6435294,42.583356 37.6227783,42.187113 C36.4243174,41.829687 35.5022957,41.2201543 37.0701283,39.993313 C38.4094717,38.9452457 38.1134174,38.058513 36.6409978,37.3868478 C36.3216236,37.3183136 36.0430842,37.1245403 35.8677679,36.8489301 C35.6924516,36.5733198 35.6350098,36.2389058 35.7083087,35.9205913 C36.0717866,35.166942 36.830672,34.6841028 37.6673348,34.6741652 C37.9632506,34.601778 38.27596,34.6567501 38.5294472,34.8257185 C38.7829344,34.9946868 38.9539845,35.2621769 39.0010174,35.5631652 C39.6974261,37.1113978 40.8240609,38.4740848 39.6804739,40.2507 C38.8709543,41.5082804 40.8800761,41.0224196 40.7526457,42.0003043 Z" id="Path"></path>
            <path d="M84.9472826,35.4990087 C83.679263,36.6259174 84.4542391,37.7846609 84.6690783,38.9809152 C84.8070543,39.749637 85.574513,41.0266957 83.8324413,41.2609674 C82.3182196,41.4646065 82.1052674,40.7281457 82.4531826,39.5101 C82.7724435,38.3912261 81.6955087,38.4387957 81.1841587,38.1022174 C80.6868696,37.7750435 79.7872022,37.8161304 79.8502326,37.0184957 C80.0547068,36.2946417 80.7295665,35.8059871 81.4810804,35.8376261 C82.6297844,35.6643754 83.7867667,35.5513484 84.9472826,35.4990087 L84.9472826,35.4990087 Z" id="Path"></path>
            <path d="M82.6677326,18.8709957 C82.7059999,19.0466111 82.6704047,19.2302357 82.5692896,19.3788322 C82.4681744,19.5274287 82.3104286,19.6279337 82.1330239,19.6567913 C80.8686413,19.2982239 79.649713,21.2246087 79.0875217,20.4324217 C78.0502856,19.2516668 77.8206301,17.5647115 78.5044826,16.1496543 C78.8936614,15.4804458 79.7045751,15.1837207 80.4337587,15.4437043 C80.7499956,15.5149929 81.0173995,15.7247338 81.1619701,16.014884 C81.3065407,16.3050342 81.3129451,16.6448211 81.1794109,16.940213 C80.7539022,18.2469 82.6304348,17.8641065 82.6677326,18.8709957 Z" id="Path"></path>
            <path d="M110.855561,36.3959065 C110.112972,36.6209192 109.317572,36.2682913 108.985678,35.5669239 C108.357702,34.8126435 107.653259,34.1191261 106.951707,33.4298696 C106.551839,33.0369109 105.476426,33.047837 105.890583,32.2063 C106.310972,31.5799025 107.082499,31.2892347 107.811702,31.4825304 C109.708961,31.8036174 110.324261,33.6169522 111.426183,34.8100109 C111.602074,35.4065132 111.371182,36.0482177 110.855561,36.3959065 L110.855561,36.3959065 Z" id="Path"></path>
            <path d="M55.4707087,40.430463 C54.1009913,40.010387 52.8651109,39.6313522 51.086,39.0856109 C52.7454499,38.1650596 54.7722811,38.2105967 56.388713,39.2047478 C56.8330333,39.4640306 57.1467562,39.8993628 57.2521558,40.4028894 C57.3575554,40.906416 57.2447703,41.431026 56.9417435,41.8467457 C56.1307992,42.941537 54.870836,43.6139934 53.5099326,43.6783413 C52.8487978,43.7324543 53.1175978,42.8852565 53.4518022,42.4447283 C53.9850043,41.7419283 55.1411609,41.7163174 55.4707087,40.430463 Z" id="Path"></path>
            <path d="M95.8074326,28.6842196 C91.5163717,29.4398848 89.8559109,27.8755674 90.5122522,24.593663 C90.5382675,24.1243309 90.8837112,23.7345465 91.3465152,23.6523152 C91.7134595,23.5854224 92.0904627,23.6954799 92.3637867,23.9492844 C92.6371107,24.2030889 92.7747493,24.5709199 92.7351783,24.9418065 C92.3359348,26.9938565 93.7311413,27.7249152 95.8074326,28.6842196 Z" id="Path"></path>
            <path d="M54.0251783,55.5409978 C54.2533022,55.0954326 53.8744043,54.8925543 53.6244435,54.6994761 C53.1247652,54.3135478 51.9525239,54.2684739 52.6563435,53.2618435 C53.2320935,52.438263 54.1101674,52.8824435 54.8686022,53.2214109 C55.7530674,53.6167587 56.8439413,56.6509696 56.2322783,57.2053239 C55.6723714,57.6961682 54.8768769,57.8135645 54.1990522,57.5053804 C52.633913,56.951087 53.4526087,56.2537196 54.0251783,55.5409978 Z" id="Path"></path>
            <path d="M99.6187652,20.707613 C98.8263106,22.2617438 97.6889513,23.6140754 96.2936587,24.6611978 C96.0447992,24.7278053 95.7806323,24.7071555 95.5451457,24.602687 C95.4888413,23.4570761 95.0683239,22.0631326 95.5686261,21.2217174 C96.4179933,20.1233078 97.8198726,19.6061478 99.1790891,19.8898 C99.3945707,20.1193166 99.5461619,20.4012817 99.6187652,20.707613 Z" id="Path"></path>
            <path d="M75.3256457,54.4428348 C74.857863,55.1116239 74.7536543,56.5694652 73.8360304,55.9772652 C72.5376217,55.1389848 70.3745913,56.8648804 69.8924891,54.7347348 C69.5927065,53.410213 70.999813,53.2914565 72.0236391,53.4045674 C73.159587,53.5301261 74.6258587,52.7957957 75.3256457,54.4428348 Z" id="Path"></path>
            <path d="M71.5365304,26.3398891 C71.2076116,27.7796771 70.030396,28.8710556 68.5698696,29.0902348 C67.9559543,29.2538217 66.9943826,29.1002783 67.1459174,28.328163 C67.1589678,27.0135863 68.1618185,25.920721 69.4704348,25.795 C70.2070327,25.6030356 70.990403,25.809633 71.5365304,26.3398891 Z" id="Path"></path>
            <path d="M72.5653783,40.8413783 C70.9685565,41.4562978 72.2300478,43.8342739 70.5439609,44.3313196 C70.0823726,44.3804542 69.6222691,44.2261477 69.2836422,43.9086423 C68.9450153,43.5911368 68.7614367,43.1419101 68.7807826,42.6781174 C69.0756944,41.3318927 70.0618811,40.2427442 71.3723043,39.8160304 C71.9962783,39.5159891 72.2954522,40.1083109 72.5653783,40.8413783 Z" id="Path"></path>
            <path d="M102.925413,41.4917391 C102.713739,42.853163 102.034785,43.02165 101.258652,42.8435 C100.449031,42.6394625 99.8283217,41.9889468 99.6624543,41.1706522 C99.4840168,40.3643861 99.6446753,39.5202194 100.106802,38.835863 C100.215646,38.6290415 100.416907,38.4868107 100.6482,38.4532575 C100.879493,38.4197044 101.112873,38.4988827 101.276,38.66625 C102.16748,39.543913 100.039343,41.9240957 102.925413,41.4917391 Z" id="Path"></path>
            <path d="M110.311311,44.4684283 C109.983574,43.6192504 110.285543,42.6562508 111.039478,42.1462543 C111.424168,41.7335861 112.042364,41.6401287 112.531848,41.9206413 C113.055874,42.2665174 112.605789,42.6989043 112.469198,43.1054217 C112.312135,43.4251554 112.267336,43.7884704 112.342026,44.1367804 C112.948043,45.3175435 112.779678,46.089537 111.346443,46.1856957 C109.789917,46.2899804 110.347224,45.0849761 110.311311,44.4684283 Z" id="Path"></path>
        </g>
    </g>
</svg>