<?xml version="1.0" encoding="UTF-8"?>
<svg width="250px" height="250px" viewBox="0 0 250 250" version="1.1" xmlns="http://www.w3.org/2000/svg" xmlns:xlink="http://www.w3.org/1999/xlink">
    <!-- Generator: Sketch 55.2 (78181) - https://sketchapp.com -->
    <title>spaghetti</title>
    <desc>Created with Sketch.</desc>
    <g id="spaghetti" stroke="none" stroke-width="1" fill="none" fill-rule="evenodd">
        <rect id="Rectangle" stroke="#212121" stroke-width="8" x="17" y="19" width="217" height="217" rx="40"></rect>
        <path d="M214.92194,133.075434 C214.753938,132.289423 214.039928,130.465398 210.991886,130.465398 L204.199791,130.465398 C202.66177,130.465398 201.413753,131.713415 201.413753,133.251436 C201.413753,134.791458 202.66177,136.037475 204.199791,136.037475 L204.289793,136.037475 C198.137708,139.419522 187.933566,144.34559 178.625437,148.517648 L167.023277,148.517648 C165.483256,148.517648 164.237238,149.763665 164.237238,151.301686 C164.237238,152.839708 165.483256,154.085725 167.023277,154.085725 L173.387365,154.085725 L170.269322,158.167781 L79.2960624,158.167781 L76.4600232,154.085725 L149.821039,154.085725 C151.36306,154.085725 152.609077,152.839708 152.609077,151.301686 C152.609077,149.763665 151.36306,148.517648 149.821039,148.517648 L71.1599498,148.517648 C61.9018216,144.34559 51.7556812,139.415522 45.6495967,136.037475 L190.3736,136.037475 C191.603617,136.037475 192.649632,135.237464 193.011637,134.129449 C193.219639,133.697443 193.327641,133.207436 193.29164,132.693429 C193.24564,132.08342 192.021623,117.701221 182.319489,110.915127 C179.225446,108.755097 175.665396,107.623082 171.687341,107.51508 C170.957331,105.425051 168.937303,100.590984 164.657244,96.1349227 C159.533173,90.8008488 150.119043,85.0027686 134.354825,87.6708055 C126.702719,88.9668234 121.250643,92.7528758 117.362589,97.6249433 C115.882569,96.3909262 113.05453,94.4028987 108.956473,93.1408812 C103.422396,91.4368576 94.3702711,90.738848 82.6541089,97.0829358 C58.533775,110.133116 55.3237306,129.209381 55.1977288,130.015392 C55.1717285,130.169394 55.1657284,130.321396 55.1677284,130.473398 L39.0135048,130.473398 C35.9674626,130.473398 35.2474527,132.297423 35.0794503,133.083434 C34.551443,135.541468 36.6594722,137.255492 41.2755361,139.953529 C44.0255742,141.561552 47.8816276,143.58758 52.7376948,145.987613 C60.9498085,150.037669 69.3419246,153.809721 69.4259258,153.851722 C69.4679264,153.869722 69.509927,153.883722 69.5519275,153.897722 L75.5520106,162.543842 C76.0760179,163.293852 76.9280297,163.741859 77.8420423,163.741859 L171.651341,163.741859 C172.523353,163.741859 173.339364,163.339853 173.865372,162.647843 L180.689466,153.69772 C182.327489,152.959709 189.807592,149.579663 197.147694,145.987613 C202.033762,143.58958 205.915815,141.559551 208.683854,139.953529 C213.327918,137.247492 215.445947,135.535468 214.92194,133.075434 Z M77.5260379,120.419259 C79.3820636,121.467273 81.9080986,123.079296 83.3461185,124.627317 C83.9781272,125.305326 84.4401336,126.217339 84.7221375,127.337355 C85.0381419,128.601372 86.1741576,129.443384 87.4201749,129.443384 C87.646178,129.443384 87.8761812,129.415383 88.1021843,129.357383 C89.594205,128.981377 90.4982175,127.471356 90.1222123,125.977336 C89.6102052,123.939308 88.7041927,122.209284 87.428175,120.841265 C85.8181527,119.105241 83.4901205,117.501218 81.5680939,116.333202 C82.6201085,115.43119 83.7601242,114.563178 84.9641409,113.727166 C87.280173,114.931183 91.0902257,117.195214 92.8402499,119.449245 C93.57026,120.387258 94.5382734,122.335285 95.0162801,126.28734 C95.1862824,127.70336 96.3902991,128.739374 97.7763183,128.739374 C97.8903198,128.739374 98.0003214,128.731374 98.116323,128.717374 C99.6403441,128.531371 100.730359,127.145352 100.546357,125.619331 C100.03835,121.431273 98.9263342,118.205228 97.2383108,116.031198 C95.518287,113.821168 92.8242497,111.873141 90.4962175,110.449121 C91.9382374,109.753111 93.3042564,109.223104 94.5982743,108.823098 C99.7243452,116.841209 105.420424,118.553233 108.838471,118.749236 C108.03646,123.595303 107.860458,127.847362 107.848458,130.465398 L72.0179617,130.465398 C73.1399772,126.823347 74.9820027,123.463301 77.5260379,120.419259 Z M110.006488,113.209159 C108.776471,113.317161 104.866416,113.153158 100.702359,107.833085 C106.58644,107.787084 109.838485,110.579123 110.078489,110.791126 C110.236491,110.935128 110.406493,111.055129 110.584496,111.157131 C110.374493,111.84514 110.18449,112.53115 110.006488,113.209159 Z M152.669078,114.345175 C150.509048,112.317147 145.842984,108.437093 140.294907,106.853071 C137.074862,105.933058 132.880804,106.203062 129.302755,107.019073 C130.540772,105.879058 132.014792,104.929044 133.782817,104.261035 C146.31699,99.5129694 153.479089,108.18709 155.943123,112.017143 C154.839108,112.723152 153.743093,113.505163 152.669078,114.345175 Z M124.816693,114.337175 C124.920694,114.261174 125.024695,114.181172 125.116697,114.087171 C126.608717,113.087157 134.556827,111.001128 138.768886,112.205145 C142.866942,113.375161 146.538993,116.299202 148.45302,118.033226 C147.625008,118.837237 146.816997,119.669248 146.034986,120.51726 C144.558966,119.357244 141.93493,117.807223 137.496868,116.539205 C132.5868,115.135186 127.272727,116.663207 123.858679,118.073226 C124.094683,116.813209 124.410687,115.553191 124.816693,114.337175 Z M123.296672,129.643387 C123.21467,128.171366 123.16267,126.435342 123.21067,124.563316 C125.280699,123.333299 131.374783,120.583261 135.966847,121.895279 C139.536896,122.915293 141.490923,124.075309 142.430936,124.779319 C140.950916,126.693346 139.634898,128.619372 138.520882,130.469398 L123.340672,130.469398 C123.328672,130.203394 123.312672,129.931391 123.296672,129.643387 Z M187.339558,130.469398 L182.281488,130.469398 C181.637479,125.385328 178.617437,117.675221 170.527325,117.675221 C165.929262,117.675221 160.949193,120.005253 155.71512,124.601317 C154.559104,125.615331 154.445103,127.373355 155.457117,128.529371 C156.473131,129.683387 158.233155,129.799389 159.387171,128.785375 C163.513228,125.157324 167.367282,123.243298 170.527325,123.243298 C174.801385,123.243298 176.195404,127.897362 176.64141,130.471398 L145.154974,130.471398 C150.179044,123.255298 157.821149,115.943197 164.661244,114.02917 C170.523325,112.389148 175.385393,112.871154 179.113444,115.46919 C184.489519,119.215242 186.579548,126.533343 187.339558,130.469398 Z M135.280837,93.1568814 C156.125126,89.6288326 163.761232,102.809015 165.927262,108.011087 C165.023249,108.185089 164.099236,108.403092 163.157223,108.665096 C162.381213,108.881099 161.609202,109.157103 160.831191,109.467107 C159.643175,107.751083 157.363143,104.859043 154.001097,102.371009 C149.21303,98.82896 143.022945,94.2768969 132.708802,98.6969581 C118.056599,104.981045 118.808609,122.073282 118.194601,130.467398 L113.414535,130.467398 C113.444535,122.309285 115.154559,96.5629286 135.280837,93.1568814 Z M85.3001456,101.973003 C102.750387,92.5268727 112.640524,100.754987 114.256546,102.287008 C113.636538,103.403023 113.07853,104.545039 112.570523,105.705055 C109.194476,103.395023 99.4043408,98.5629563 84.9361405,107.123075 L84.9341405,107.123075 C84.7861384,107.209076 84.6381364,107.299077 84.4841343,107.391078 C74.7439994,113.30516 68.6079145,121.063268 66.2258815,130.467398 L60.771806,130.467398 C61.3398139,127.861362 65.4158703,112.731152 85.3001456,101.973003 Z" fill="#212121" fill-rule="nonzero"></path>
    </g>
</svg>