<?xml version="1.0" encoding="UTF-8"?>
<svg width="250px" height="250px" viewBox="0 0 250 250" version="1.1" xmlns="http://www.w3.org/2000/svg" xmlns:xlink="http://www.w3.org/1999/xlink">
    <!-- Generator: Sketch 55.2 (78181) - https://sketchapp.com -->
    <title>steak</title>
    <desc>Created with Sketch.</desc>
    <g id="steak" stroke="none" stroke-width="1" fill="none" fill-rule="evenodd">
        <rect id="Rectangle" stroke="#212121" stroke-width="8" x="17" y="19" width="217" height="217" rx="40"></rect>
        <g id="Group" transform="translate(51.000000, 50.000000)" fill="#212121" fill-rule="nonzero">
            <path d="M54.7959184,43.1632653 C54.7959184,45.3061224 53.877551,47.4489796 52.3469388,49.2857143 C51.122449,50.5102041 51.122449,52.3469388 52.3469388,53.5714286 C52.9591837,54.1836735 53.877551,54.4897959 54.4897959,54.4897959 C55.4081633,54.4897959 56.0204082,54.1836735 56.6326531,53.5714286 C59.3877551,50.8163265 60.9183673,47.1428571 60.9183673,43.1632653 C60.9183673,39.1836735 59.3877551,35.5102041 56.6326531,32.755102 C55.1020408,31.2244898 54.1836735,29.0816327 54.1836735,26.9387755 C54.1836735,24.7959184 55.1020408,22.6530612 56.6326531,20.8163265 C57.8571429,19.5918367 57.8571429,17.755102 56.6326531,16.5306122 C55.4081633,15.3061224 53.5714286,15.3061224 52.3469388,16.5306122 C49.5918367,19.2857143 48.0612245,22.9591837 48.0612245,26.9387755 C48.0612245,30.9183673 49.5918367,34.5918367 52.3469388,37.3469388 C54.1836735,38.877551 55.1020408,41.0204082 54.7959184,43.1632653 Z" id="Path"></path>
            <path d="M73.7755102,30.3061224 C73.7755102,32.4489796 72.8571429,34.5918367 71.3265306,36.4285714 C70.1020408,37.6530612 70.1020408,39.4897959 71.3265306,40.7142857 C71.9387755,41.3265306 72.8571429,41.6326531 73.4693878,41.6326531 C74.3877551,41.6326531 75,41.3265306 75.6122449,40.7142857 C78.3673469,37.9591837 79.8979592,34.2857143 79.8979592,30.3061224 C79.8979592,26.3265306 78.3673469,22.6530612 75.6122449,19.8979592 C74.0816327,18.3673469 73.1632653,16.2244898 73.1632653,14.0816327 C73.1632653,11.9387755 74.0816327,9.79591837 75.6122449,7.95918367 C76.8367347,6.73469388 76.8367347,4.89795918 75.6122449,3.67346939 C74.3877551,2.44897959 72.5510204,2.44897959 71.3265306,3.67346939 C68.5714286,6.42857143 67.0408163,10.1020408 67.0408163,14.0816327 C67.0408163,18.0612245 68.5714286,21.7346939 71.3265306,24.4897959 C72.8571429,26.0204082 73.7755102,28.1632653 73.7755102,30.3061224 Z" id="Path"></path>
            <path d="M92.4489796,42.8571429 C92.4489796,45 91.5306122,47.1428571 90,48.9795918 C88.7755102,50.2040816 88.7755102,52.0408163 90,53.2653061 C90.6122449,53.877551 91.5306122,54.1836735 92.1428571,54.1836735 C93.0612245,54.1836735 93.6734694,53.877551 94.2857143,53.2653061 C97.0408163,50.5102041 98.5714286,46.8367347 98.5714286,42.8571429 C98.5714286,38.877551 97.0408163,35.2040816 94.2857143,32.4489796 C92.755102,30.9183673 91.8367347,28.7755102 91.8367347,26.6326531 C91.8367347,24.4897959 92.755102,22.3469388 94.2857143,20.5102041 C95.5102041,19.2857143 95.5102041,17.4489796 94.2857143,16.2244898 C93.0612245,15 91.2244898,15 90,16.2244898 C87.244898,18.9795918 85.7142857,22.6530612 85.7142857,26.6326531 C85.7142857,30.6122449 87.244898,34.2857143 90,37.0408163 C91.5306122,38.5714286 92.4489796,40.4081633 92.4489796,42.8571429 Z" id="Path"></path>
            <path d="M140.204082,85.1020408 C137.142857,78.9795918 129.795918,77.755102 120.918367,76.5306122 C112.653061,75.3061224 101.020408,73.7755102 87.244898,67.6530612 C74.3877551,62.1428571 62.1428571,59.0816327 50.8163265,59.0816327 C29.0816327,59.0816327 14.6938776,69.1836735 8.57142857,80.2040816 C8.57142857,80.2040816 8.26530612,80.5102041 8.26530612,80.5102041 C2.75510204,89.3877551 0,98.2653061 0,106.836735 C0,127.040816 31.2244898,150 73.1632653,150 C119.693878,150 141.428571,127.040816 146.326531,107.44898 C148.77551,97.9591837 143.877551,88.1632653 140.204082,85.1020408 Z M50.8163265,65.2040816 C61.5306122,65.2040816 72.8571429,67.9591837 84.7959184,73.1632653 C99.1836735,79.5918367 111.122449,81.122449 120,82.6530612 C132.244898,84.4897959 135.612245,85.1020408 135.612245,92.4489796 C135.612245,108.061224 107.755102,126.734694 73.1632653,126.734694 C38.5714286,126.734694 10.7142857,108.061224 10.7142857,92.4489796 C11.0204082,81.4285714 25.1020408,65.2040816 50.8163265,65.2040816 Z M140.510204,105.918367 C135.918367,124.897959 113.265306,143.877551 73.1632653,143.877551 C36.122449,143.877551 6.12244898,123.673469 6.12244898,106.836735 C6.12244898,105 6.42857143,102.857143 6.73469388,101.020408 C13.4693878,117.244898 39.7959184,132.857143 73.1632653,132.857143 C107.755102,132.857143 134.693878,116.020408 140.510204,99.1836735 C140.816327,101.326531 140.816327,103.77551 140.510204,105.918367 Z" id="Shape"></path>
            <path d="M28.4693878,98.2653061 C29.0816327,98.2653061 29.6938776,98.2653061 30,97.9591837 L58.7755102,80.8163265 C60.3061224,79.8979592 60.6122449,78.0612245 59.6938776,76.5306122 C58.7755102,75 56.9387755,74.6938776 55.4081633,75.6122449 L26.6326531,92.755102 C25.1020408,93.6734694 24.7959184,95.5102041 25.7142857,97.0408163 C26.3265306,97.6530612 27.5510204,98.2653061 28.4693878,98.2653061 Z" id="Path"></path>
            <path d="M54.1836735,104.693878 C54.7959184,105.612245 55.7142857,106.22449 56.9387755,106.22449 C57.5510204,106.22449 58.1632653,106.22449 58.4693878,105.918367 L87.244898,88.7755102 C88.7755102,87.8571429 89.0816327,86.0204082 88.1632653,84.4897959 C87.244898,82.9591837 85.4081633,82.6530612 83.877551,83.5714286 L55.1020408,100.408163 C53.877551,101.326531 53.2653061,103.163265 54.1836735,104.693878 Z" id="Path"></path>
            <path d="M82.3469388,112.653061 C82.9591837,113.571429 83.877551,114.183673 85.1020408,114.183673 C85.7142857,114.183673 86.3265306,114.183673 86.6326531,113.877551 L115.408163,96.7346939 C116.938776,95.8163265 117.244898,93.9795918 116.326531,92.4489796 C115.408163,90.9183673 113.571429,90.6122449 112.040816,91.5306122 L83.2653061,108.673469 C82.0408163,109.285714 81.4285714,111.122449 82.3469388,112.653061 Z" id="Path"></path>
        </g>
    </g>
</svg>