<?xml version="1.0" encoding="UTF-8"?>
<svg width="250px" height="250px" viewBox="0 0 250 250" version="1.1" xmlns="http://www.w3.org/2000/svg" xmlns:xlink="http://www.w3.org/1999/xlink">
    <!-- Generator: Sketch 55.2 (78181) - https://sketchapp.com -->
    <title>limbs</title>
    <desc>Created with Sketch.</desc>
    <g id="limbs" stroke="none" stroke-width="1" fill="none" fill-rule="evenodd">
        <circle id="Oval" stroke="#212121" stroke-width="8" cx="125.5" cy="125.5" r="115.5"></circle>
        <path d="M194.139136,102.491191 C192.307455,98.1431064 189.681549,94.2397872 186.339186,90.8857872 L148.398402,52.8334043 C144.648999,49.0711489 139.663583,47 134.358823,47 C129.055717,47 124.068647,49.0711489 120.319244,52.8334043 L102.768529,70.4365106 C99.0174707,74.1971064 96.9524861,79.1990638 96.9524861,84.518 C96.9524861,89.8352766 99.0158161,94.8322553 102.76191,98.5928511 C102.765219,98.5961702 102.766874,98.5978298 102.768529,98.6011489 L105.591336,101.430723 C108.09149,103.93834 109.468146,107.272426 109.468146,110.818936 C109.468146,114.365447 108.09149,117.699532 105.591336,120.207149 L53.9584465,171.99417 C53.9551372,171.997489 53.951828,172.002468 53.9485187,172.005787 C53.8211118,172.135234 53.7119059,172.277957 53.6076638,172.424 C53.584499,172.457191 53.5530609,172.487064 53.5315506,172.520255 C53.4405457,172.661319 53.3677418,172.81234 53.2982471,172.963362 C53.248608,173.072894 53.2072421,173.184085 53.1708402,173.296936 C53.126165,173.431362 53.076526,173.565787 53.0500518,173.706851 C53.0483972,173.713489 53.0500518,173.718468 53.0483972,173.725106 C52.9888303,174.042085 52.9888303,174.369021 53.0235776,174.697617 C53.0335055,174.792213 53.0335055,174.886809 53.0517064,174.979745 C53.0649435,175.044468 53.0914177,175.107532 53.107964,175.172255 C53.1460206,175.321617 53.1840773,175.470979 53.2436441,175.613702 C53.2469534,175.62034 53.2469534,175.626979 53.2502627,175.633617 C55.4989118,180.969149 58.7204864,185.762 62.8239816,189.876085 C66.9274768,193.99017 71.7044084,197.221362 77.0240604,199.476723 C82.5323408,201.815064 88.3831307,203 94.4126211,203 C100.442112,203 106.292901,201.815064 111.802836,199.476723 C117.122488,197.221362 121.901075,193.99017 126.002915,189.874426 C130.104756,185.758681 133.32633,180.967489 135.576634,175.631957 C135.579943,175.625319 135.579943,175.617021 135.583253,175.610383 C135.584907,175.605404 135.589871,175.602085 135.591526,175.595447 L136.599199,173.121021 C138.755188,167.826979 143.012565,163.53366 148.280923,161.344681 L174.746812,150.35 C174.750121,150.34834 174.751776,150.346681 174.755085,150.345021 C174.760049,150.343362 174.765013,150.343362 174.769977,150.340043 C179.105121,148.501234 182.996823,145.869149 186.339186,142.516809 C189.683203,139.164468 192.3058,135.259489 194.139136,130.913064 C196.037002,126.412298 197,121.629404 197,116.702128 C197,111.774851 196.037002,106.991957 194.139136,102.491191 Z M144.125381,57.8746195 C146.624121,60.3733604 148,63.6972977 148,67.2296012 C148,70.7619048 146.624121,74.0858421 144.125381,76.584583 C144.123727,76.5862367 144.123727,76.5878904 144.122073,76.5895441 L126.584583,94.1253805 C124.085842,96.6241215 120.763558,98 117.229601,98 C113.698951,98 110.381629,96.6257752 107.882888,94.133649 L107.874619,94.1253805 C107.872966,94.1237268 107.872966,94.1237268 107.871312,94.1237268 C105.374225,91.6249859 104,88.304356 104,84.7720525 C104,81.2380952 105.375879,77.9158116 107.874619,75.4170707 L125.415417,57.8746195 C127.915812,55.3758785 131.236442,54 134.770399,54 C138.304356,54 141.62664,55.3758785 144.125381,57.8746195 Z M187.661829,128.184471 C186.16368,131.730675 184.017324,134.917622 181.282293,137.65757 C178.547261,140.397517 175.362453,142.544775 171.820471,144.044709 C171.818818,144.044709 171.818818,144.046365 171.817164,144.046365 L145.394508,155.002843 C138.508974,157.858679 132.944656,163.457773 130.128598,170.364758 L129.133139,172.801738 C127.218286,177.332998 124.478293,181.402358 120.985919,184.898895 C117.491891,188.397087 113.424069,191.142001 108.894896,193.060792 C103.404989,195.385194 97.407431,196.308995 91.4958597,195.910006 L104.36903,183.021493 C105.660481,181.728503 105.660481,179.632567 104.36903,178.339577 C103.079232,177.046587 100.982485,177.046587 99.6926873,178.339577 L83.5239198,194.527615 C82.0886068,194.115382 80.6698297,193.643548 79.2907386,193.059136 C78.7152906,192.815769 78.1712607,192.52108 77.6123485,192.251224 L92.0167394,177.829665 C93.3081903,176.536675 93.3081903,174.44074 92.0167394,173.14775 C90.7252884,171.854759 88.6301945,171.854759 87.3403971,173.14775 L71.7586527,188.749721 C70.1993208,187.612353 68.7028251,186.380618 67.3154661,185.003195 L82.6425582,169.659491 C83.9340092,168.3665 83.9340092,166.270565 82.6425582,164.977575 C81.3527609,163.684585 79.2560133,163.684585 77.966216,164.977575 L63.0442525,179.917323 C61.8933564,178.288255 60.8830151,176.566475 60,174.76854 L109.946576,124.762435 C115.477823,119.224596 117.032194,111.210043 114.654337,104.255047 C115.257896,104.309681 115.866416,104.344447 116.479896,104.344447 C121.779641,104.344447 126.76355,102.278312 130.510577,98.5251639 L148.04686,80.9696352 C148.048514,80.9679796 148.050167,80.9679796 148.051821,80.9663241 C151.542542,77.4697872 153.548342,72.8987938 153.809609,68 L181.288907,95.5120497 C184.023939,98.2503414 186.170294,101.438945 187.668443,104.986804 C189.212893,108.65883 190,112.560978 190,116.585637 C190,120.610297 189.212893,124.512445 187.661829,128.184471 Z M171.403652,105.637505 C174.367652,108.625305 176,112.601262 176,116.830506 C176,121.059751 174.367652,125.035708 171.402,128.025174 C170.756,128.675058 169.911739,129 169.065826,129 C168.219913,129 167.374,128.675058 166.728,128.023508 C165.437652,126.722073 165.437652,124.610784 166.728,123.30935 C168.446261,121.581325 169.391304,119.278403 169.391304,116.830506 C169.391304,114.38261 168.446261,112.079688 166.729652,110.349997 C165.014696,108.61864 162.731391,107.665476 160.304348,107.665476 C158.480348,107.665476 157,106.17241 157,104.332738 C157,102.493067 158.480348,101 160.304348,101 C164.497565,101 168.439652,102.646373 171.403652,105.637505 Z M130.466667,69.5234899 C129.533333,68.5838926 129,67.2919463 129,65.966443 C129,64.6409396 129.533333,63.3322148 130.466667,62.409396 C132.333333,60.5302013 135.683333,60.5302013 137.533333,62.409396 C138.466667,63.3322148 139,64.6409396 139,65.966443 C139,67.2919463 138.466667,68.5838926 137.533333,69.5234899 C136.6,70.4630872 135.316667,71 134,71 C132.683333,71 131.4,70.4630872 130.466667,69.5234899 Z M120.533333,80.409396 C121.466667,81.3489933 122,82.6409396 122,83.966443 C122,85.2919463 121.466667,86.5838926 120.533333,87.5402685 C119.6,88.4630872 118.316667,89 117,89 C115.666667,89 114.383333,88.4630872 113.45,87.5402685 C112.533333,86.6006711 112,85.2919463 112,83.966443 C112,82.6409396 112.533333,81.3489933 113.45,80.409396 C115.316667,78.5302013 118.666667,78.5302013 120.533333,80.409396 Z" fill="#212121" fill-rule="nonzero"></path>
    </g>
</svg>