<?xml version="1.0" encoding="UTF-8"?>
<svg width="177px" height="32px" viewBox="0 0 177 32" version="1.1" xmlns="http://www.w3.org/2000/svg" xmlns:xlink="http://www.w3.org/1999/xlink">
    <!-- Generator: Sketch 55.2 (78181) - https://sketchapp.com -->
    <title>logo</title>
    <desc>Created with Sketch.</desc>
    <g id="Page-1" stroke="none" stroke-width="1" fill="none" fill-rule="evenodd">
        <g id="Artboard" transform="translate(-130.000000, -199.000000)" fill="#212121">
            <g id="logo" transform="translate(130.000000, 187.000000)">
                <text id="z-MBIE-DINER" font-family="Bangers-Regular, Bangers" font-size="40" font-weight="normal" letter-spacing="-1.46666667">
                    <tspan x="0" y="43">z    MBIE DINER</tspan>
                </text>
                <path d="M30,15 C22.2844444,15 16,21.2533333 16,29 C16,36.7155556 22.2844444,43 30,43 C37.7155556,43 44,36.7155556 44,29 C44,21.2533333 37.7155556,15 30,15 Z M30,41 C23.3846154,41 18,35.6153846 18,29 C18,22.3846154 23.3846154,17 30,17 C36.6153846,17 42,22.3846154 42,29 C42,35.6153846 36.6153846,41 30,41 Z M25,29 C25,27.8857143 24.1,27 23,27 C21.9,27 21,27.8857143 21,29 C21,30.1142857 21.9,31 23,31 C24.1,31 25,30.1142857 25,29 Z M23,29 C23,28.4 23.25,28 23.5,28 C23.75,28 24,28.4 24,29 C24,29.6 23.75,30 23.5,30 C23.25,30 23,29.6 23,29 Z M37,27 C35.9,27 35,27.8857143 35,29 C35,30.1142857 35.9,31 37,31 C38.1,31 39,30.1142857 39,29 C39,27.8857143 38.1,27 37,27 Z M36.5,30 C36.25,30 36,29.6 36,29 C36,28.4 36.25,28 36.5,28 C36.75,28 37,28.4 37,29 C37,29.6 36.75,30 36.5,30 Z M36.3809524,35 L24.6190476,35 C24.2785714,35 24,35.27 24,35.6 C24,35.93 24.2785714,36.2 24.6190476,36.2 L25.2380952,36.2 L25.2380952,36.5 C25.2380952,37.34 25.9190476,38 26.7857143,38 C27.1261905,38 27.4666667,37.88 27.7142857,37.7 C27.9619048,37.88 28.302381,38 28.6428571,38 C28.9833333,38 29.3238095,37.88 29.5714286,37.7 C29.8190476,37.88 30.1595238,38 30.5,38 C30.8404762,38 31.1809524,37.88 31.4285714,37.7 C31.6761905,37.88 32.0166667,38 32.3571429,38 C32.697619,38 33.0380952,37.88 33.2857143,37.7 C33.5333333,37.88 33.8738095,38 34.2142857,38 C35.0809524,38 35.7619048,37.34 35.7619048,36.5 L35.7619048,36.2 L36.3809524,36.2 C36.7214286,36.2 37,35.93 37,35.6 C37,35.27 36.7214286,35 36.3809524,35 Z M27,36.5 C27,36.75 26.75,37 26.5,37 C26.25,37 26,36.75 26,36.5 L26,36 L27,36 L27,36.5 Z M29,36.5 C29,36.75 28.75,37 28.5,37 C28.25,37 28,36.75 28,36.5 L28,36 L29,36 L29,36.5 Z M31,36.5 C31,36.75 30.75,37 30.5,37 C30.25,37 30,36.75 30,36.5 L30,36 L31,36 L31,36.5 Z M32,36.5 C32,36.75 31.75,37 31.5,37 C31.25,37 31,36.75 31,36.5 L31,36 L32,36 L32,36.5 Z M34,36.5 C34,36.75 33.75,37 33.5,37 C33.25,37 33,36.75 33,36.5 L33,36 L34,36 L34,36.5 Z M26.1846154,21.0461538 C25.9384615,20.8 25.9384615,20.4 26.1846154,20.1846154 C26.4307692,19.9384615 26.8,19.9384615 27.0461538,20.1846154 L27.3846154,20.5230769 L27.6,20.3076923 C27.8461538,20.0615385 28.2153846,20.0615385 28.4615385,20.3076923 C28.7076923,20.5538462 28.7076923,20.9230769 28.4615385,21.1692308 L28.2461538,21.3846154 L28.4615385,21.6 L28.6769231,21.3846154 C28.9230769,21.1384615 29.2923077,21.1384615 29.5384615,21.3846154 C29.7846154,21.6307692 29.7846154,22 29.5384615,22.2461538 L29.3230769,22.4615385 L29.5384615,22.6769231 L29.7538462,22.4615385 C30,22.2153846 30.3692308,22.2153846 30.6153846,22.4615385 C30.8615385,22.7076923 30.8615385,23.0769231 30.6153846,23.3230769 L30.4,23.5384615 L30.6153846,23.7538462 L30.8307692,23.5384615 C31.0769231,23.2923077 31.4461538,23.2923077 31.6923077,23.5384615 C31.9384615,23.7846154 31.9384615,24.1846154 31.6923077,24.4 L31.4769231,24.6153846 L31.8153846,24.9538462 C32.0615385,25.2 32.0615385,25.5692308 31.8153846,25.8153846 C31.6923077,25.9384615 31.5384615,26 31.3846154,26 C31.2307692,26 31.0769231,25.9384615 30.9538462,25.8153846 L30.6153846,25.4769231 L30.4,25.6923077 C30.2769231,25.8153846 30.1230769,25.8769231 29.9692308,25.8769231 C29.8153846,25.8769231 29.6615385,25.8153846 29.5384615,25.6923077 C29.2923077,25.4461538 29.2923077,25.0769231 29.5384615,24.8307692 L29.7538462,24.6153846 L29.5384615,24.4 L29.3230769,24.6153846 C29.2,24.7384615 29.0461538,24.8 28.8923077,24.8 C28.7384615,24.8 28.5846154,24.7384615 28.4615385,24.6153846 C28.2153846,24.3692308 28.2153846,24 28.4615385,23.7538462 L28.6769231,23.5384615 L28.4615385,23.3230769 L28.2461538,23.5384615 C28.1230769,23.6615385 27.9692308,23.7230769 27.8153846,23.7230769 C27.6615385,23.7230769 27.5076923,23.6615385 27.3846154,23.5384615 C27.1384615,23.2923077 27.1384615,22.9230769 27.3846154,22.6769231 L27.6,22.4615385 L27.3846154,22.2461538 L27.1692308,22.4615385 C27.0461538,22.5846154 26.8923077,22.6461538 26.7384615,22.6461538 C26.5846154,22.6461538 26.4307692,22.5846154 26.3076923,22.4615385 C26.0615385,22.2153846 26.0615385,21.8461538 26.3076923,21.6 L26.5230769,21.3846154 L26.1846154,21.0461538 Z" id="Shape-Copy" fill-rule="nonzero" transform="translate(30.000000, 29.000000) rotate(-2.000000) translate(-30.000000, -29.000000) "></path>
            </g>
        </g>
    </g>
</svg>