<?xml version="1.0" encoding="UTF-8"?>
<svg width="250px" height="250px" viewBox="0 0 250 250" version="1.1" xmlns="http://www.w3.org/2000/svg" xmlns:xlink="http://www.w3.org/1999/xlink">
    <!-- Generator: Sketch 55.2 (78181) - https://sketchapp.com -->
    <title>brains</title>
    <desc>Created with Sketch.</desc>
    <g id="brains" stroke="none" stroke-width="1" fill="none" fill-rule="evenodd">
        <g id="brain" transform="translate(49.000000, 47.000000)" fill="#212121" fill-rule="nonzero">
            <path d="M137.071501,49.1131742 C142.09055,20.9140017 119.117413,12.4091328 113.793746,10.8351401 C101.028394,-6.67680528 84.2478032,1.28706727 77.5502865,5.58849757 C76.3297684,6.37447329 74.8128095,6.37039014 73.5963801,5.58849757 C66.9009079,1.28910884 50.1223614,-6.68088822 37.3529203,10.8351401 C36.2204399,11.1699452 34.2853974,11.8227133 31.9948815,12.9077681 C31.908888,12.9383904 31.8228947,12.9591883 31.7369013,12.9909589 C31.6114251,13.0372754 31.5237707,13.1308013 31.4096665,13.1928117 C23.0559151,17.3171423 10.6445029,27.1057288 13.9192787,48.0790291 C13.9231121,48.0995718 13.9154454,48.1188384 13.9197898,48.1393808 C13.9279673,48.1781692 13.9394673,48.2298445 13.9480284,48.270164 C13.9933889,48.5532938 14.0240552,48.825961 14.0751657,49.1131739 C4.46230756,56.7320337 -7.74491826,75.8057231 6.51490433,101.095765 C5.52540565,106.440399 2.73272925,129.168357 24.7408997,136.940329 C26.7198972,140.490489 33.9366962,151.945318 46.1909438,155.158632 C54.3849751,157.312409 63.0328675,155.326034 71.8790684,149.258711 C74.1238404,147.719423 77.0228265,147.719423 79.2675987,149.258711 C85.8097395,153.745917 92.2394373,156 98.4626486,156 C100.654266,156 102.82135,155.720043 104.955723,155.158632 C117.209971,151.945318 124.42677,140.490489 126.405767,136.940329 C148.413938,129.168357 145.621261,106.440399 144.631763,101.095765 C158.891585,75.8057233 146.684359,56.7320342 137.071501,49.1131742 Z M139.453249,114.33077 C138.013467,122.629576 133.309898,128.342445 125.54315,131.408898 C125.518362,130.345917 125.43109,129.277577 125.230226,128.200688 C123.638135,119.651672 116.851558,113.068999 113.300914,110.135498 C115.421232,106.613671 116.901902,101.971439 117.103661,95.8327904 C117.154771,94.3322916 115.975141,93.0767719 114.474538,93.027776 C112.975979,92.8705809 111.712528,94.1526398 111.665506,95.6531388 C111.013337,115.43726 94.557808,115.702655 93.8197727,115.704696 C93.8177282,115.704696 93.8136394,115.704696 93.8095506,115.704696 C92.3150803,115.704696 91.098651,116.909178 91.0884289,118.403553 C91.0782069,119.904052 92.2864584,121.128949 93.7911508,121.139156 C93.7911508,121.139156 93.7931953,121.139156 93.7952396,121.139156 C94.0592251,121.139156 103.17069,121.029043 109.927878,114.408985 C112.924868,116.900757 118.615636,122.40667 119.879981,129.194896 C120.618272,133.159607 119.731378,136.904475 117.184543,140.641049 C114.040865,144.328883 109.438495,148.373595 103.543029,149.909948 C96.953867,151.635011 89.820889,149.901782 82.350582,144.77967 C78.2331221,141.954241 72.9135439,141.954241 68.796084,144.77967 C61.325777,149.901781 54.1927993,151.635011 47.6036367,149.909948 C39.5472205,147.810397 33.9090961,141.032123 31.1072199,136.876405 C30.511655,135.413928 27.1503747,126.526407 30.1831426,119.603952 C31.7082792,116.123203 34.5806878,113.697907 38.9618778,112.191283 C42.3372136,111.028014 45.3670425,110.947375 47.9892655,111.931758 C48.4401877,112.166147 48.8934098,112.379101 49.3498262,112.556966 C55.0720272,115.703803 57.1675567,123.513926 57.1858287,123.586909 C57.5558685,125.040454 59.0339834,125.920338 60.495743,125.548786 C61.9513694,125.177234 62.8325139,123.699192 62.4604298,122.243606 C62.386064,121.952437 61.089008,117.053487 57.6159235,112.675118 C58.9896453,112.141394 60.2760959,111.33309 61.4034652,110.219199 C65.0098202,106.65884 66.0647405,101.146803 63.9140118,97.1107667 C63.2086872,95.7878779 61.5649744,95.28567 60.2320131,95.9899859 C58.9051851,96.6963432 58.4022582,98.3417883 59.1096271,99.6667188 C60.1400143,101.597973 59.4817114,104.47444 57.5763128,106.354657 C56.5912863,107.331122 54.5993832,108.65669 51.6597642,107.631221 C47.4114615,105.411486 42.5429333,105.212568 37.1873223,107.050807 C31.3586837,109.057589 27.3189118,112.556711 25.1845385,117.454258 C23.2505181,121.888768 23.2552459,126.705166 23.8473607,130.692589 C6.90078827,122.578921 11.7943606,102.219991 12.0246134,101.306039 C12.2004335,100.613973 12.0982124,99.8790343 11.7363504,99.2625027 C-2.11203268,75.6158644 10.1478367,60.2014277 15.9792864,54.7200133 C17.2171822,57.4522993 19.1727968,60.4384963 22.3749957,62.9289928 C20.3772149,66.0809337 17.5671612,71.8649999 18.8325286,78.0432022 C19.9406038,83.4449984 23.8249997,87.8382959 30.3773626,91.1026466 C30.7678465,91.2965886 31.1808193,91.3904974 31.5897031,91.388456 C32.5894241,91.388456 33.5503009,90.8372523 34.0266506,89.883874 C34.69722,88.5405703 34.1513601,86.9094155 32.8061324,86.2398051 C27.8381942,83.7634715 24.9330749,80.6481499 24.1705066,76.9775415 C23.2512848,72.5454555 25.5341341,68.077133 27.0582484,65.7081055 C29.2769542,66.7024413 31.8571387,67.4916067 34.9118839,67.945967 C35.0468155,67.9663819 35.1817471,67.974548 35.3166789,67.974548 C36.6414624,67.974548 37.8026924,67.0068793 38.0050899,65.6574511 C38.2258872,64.1732842 37.1995888,62.7911918 35.7132961,62.5686688 C23.7087234,60.7841469 20.6073398,53.3813027 19.2627509,47.1011533 C16.611906,29.5911218 26.6469368,21.519305 33.5629505,18.0963557 C33.583778,18.0892104 33.6051167,18.0941866 33.6259441,18.086531 C37.0401239,16.8269285 40.3214163,16.7799741 42.6336542,17.9640412 C44.4511428,18.8929214 45.720727,20.6200264 46.4056073,23.0984015 C46.7388476,24.3028837 47.8326117,25.0929424 49.0265524,25.0929424 C49.2677938,25.0929424 49.5110796,25.0602785 49.7543654,24.992909 C51.201814,24.5927761 52.0522923,23.09636 51.6515862,21.6489399 C50.5598664,17.7006883 48.2987391,14.7527694 45.1155787,13.1256978 C44.4833421,12.8025035 43.8040841,12.5536964 43.1061704,12.3390843 C48.4906589,6.03099181 57.2854938,1.5783634 70.6524164,10.1614469 C73.641357,12.0804525 77.5053088,12.0763693 80.4942495,10.1614469 C95.5227734,0.507216279 104.775814,7.32785155 109.895039,14.7425619 C110.287567,15.3100976 110.882493,15.7081892 111.559196,15.8551769 C112.535662,16.0668543 133.776664,20.978947 132.229039,43.8540276 C132.026641,45.8975643 129.834896,51.2202524 124.925607,54.1250449 C120.020663,57.0272855 113.888045,56.6286834 106.709962,53.0292724 C108.631588,47.8704142 107.490802,42.0627433 103.755649,38.8567027 C102.610774,37.8767851 100.895507,38.0094823 99.91623,39.1465951 C98.9369534,40.2857494 99.0677962,42.0026467 100.206538,42.980523 C102.318422,44.7913292 102.833616,48.662004 101.380034,51.7916162 C100.46209,53.7698251 98.0598976,56.9565989 92.2087704,56.0195526 C90.7347443,55.7909051 89.328184,56.7932793 89.0910315,58.2754048 C88.8559233,59.7575303 89.8658663,61.1518716 91.3501146,61.3886849 C92.3191691,61.541797 93.2657352,61.6173323 94.1816349,61.6173323 C98.0717809,61.6173323 101.418111,60.2257982 103.844326,57.6897508 C109.217187,60.4518938 113.824285,61.4805521 117.66792,61.4805521 C117.938167,61.4805521 118.172253,61.4355117 118.435089,61.4258145 C119.899787,63.1080065 122.685563,67.4454181 118.878216,73.090535 C118.03796,74.335847 118.369156,76.0241635 119.614207,76.863218 C120.080335,77.1776082 120.609839,77.3266374 121.13321,77.3266374 C122.008222,77.3266374 122.866878,76.9060894 123.392293,76.1282798 C127.600219,69.8881945 126.483327,64.1783879 124.298099,60.341653 C125.562316,59.8964794 126.722652,59.3789604 127.699884,58.8000689 C130.114471,57.3715327 132.105863,55.4456371 133.664732,53.3903619 C138.335846,57.246491 154.62156,73.2886876 139.410316,99.2625027 C139.048454,99.8790343 138.946233,100.613973 139.122053,101.306039 C139.138408,101.367284 140.651279,107.422351 139.453249,114.33077 Z" id="Shape"></path>
            <path d="M97.5852773,84.5396924 C95.085355,85.3565172 91.6803062,87.4596711 89.2951989,91.1003172 C89.2649023,91.1023686 89.2377265,91.0886501 89.2072998,91.091727 C84.7988235,91.5348202 81.7010313,91.0035186 80.0158658,89.5019253 C78.6531703,88.2875219 78.043598,86.3079623 78.043598,83.0852802 L78.043598,25.6103564 C78.043598,24.102609 76.8036492,22.88 75.2745173,22.88 C73.7453854,22.88 72.5054365,24.1026087 72.5054365,25.6103564 L72.5054365,59.6746799 C70.1442543,57.9096153 67.1256493,57.0067616 63.4835593,56.9726579 C64.1498237,54.1119123 64.2339521,50.7311474 63.3327265,46.7454887 C62.9998543,45.2726143 61.5227338,44.345401 60.0268894,44.6756693 C58.5352058,45.0038865 57.5948417,46.4624013 57.9277139,47.9352758 C60.7009555,60.20034 52.1107718,63.5502063 51.1079943,63.8948341 C49.6662416,64.376903 48.8881527,65.9154209 49.3687371,67.3411141 C49.7536207,68.4878226 50.8354554,69.2140032 51.9963471,69.2140032 C52.2855299,69.2140032 52.5788735,69.1688733 52.8680562,69.0724596 C55.3675885,68.2547374 58.7719871,66.1517117 61.1570944,62.5119632 C61.1884312,62.5096555 61.2166473,62.5238868 61.2481141,62.520425 C64.9887657,62.1450267 67.8036162,62.7624852 69.6032067,64.3645951 C71.5276241,66.0774783 72.5054363,69.0314326 72.5054363,73.1382495 L72.5054363,132.469644 C72.5054363,133.977391 73.7453852,135.2 75.2745171,135.2 C76.8036489,135.2 78.0435978,133.977391 78.0435978,132.469644 L78.0435978,94.7834006 C80.2201401,96.0553703 82.9740075,96.7042401 86.4028512,96.7042401 C86.5786493,96.7042401 86.7825337,96.6775725 86.9618424,96.6742391 C86.3033797,99.5278051 86.2231522,102.897031 87.1206068,106.866663 C87.4077091,108.138505 88.5519573,109.00417 89.8210326,109.002118 C90.0207559,109.002118 90.2225598,108.981605 90.426444,108.936475 C91.9181276,108.608258 92.8584917,107.149751 92.5256194,105.676876 C89.7544584,93.4159146 98.3342396,90.0660486 99.345339,89.7173179 C100.787092,89.2373004 101.565181,87.6967311 101.084596,86.2710379 C100.604012,84.8391905 99.0332717,84.0535208 97.5852773,84.5396924 Z" id="Path"></path>
        </g>
        <circle id="Oval-Copy-2" stroke="#212121" stroke-width="8" cx="125.5" cy="125.5" r="115.5"></circle>
    </g>
</svg>