<?xml version="1.0" encoding="UTF-8"?>
<svg width="250px" height="250px" viewBox="0 0 250 250" version="1.1" xmlns="http://www.w3.org/2000/svg" xmlns:xlink="http://www.w3.org/1999/xlink">
    <!-- Generator: Sketch 55.2 (78181) - https://sketchapp.com -->
    <title>eyes</title>
    <desc>Created with Sketch.</desc>
    <g id="eyes" stroke="none" stroke-width="1" fill="none" fill-rule="evenodd">
        <circle id="Oval-Copy-3" stroke="#212121" stroke-width="8" cx="125.5" cy="125.5" r="115.5"></circle>
        <g transform="translate(125.000000, 125.000000) rotate(157.000000) translate(-125.000000, -125.000000) translate(65.000000, 65.000000)" fill="#212121" fill-rule="nonzero" id="Shape">
            <path d="M59.997,119.1585 C27.294,119.1585 0.687,92.5485 0.687,59.841 C0.687,27.1365 27.294,0.528 59.997,0.528 C92.703,0.528 119.3115,27.135 119.3115,59.841 C119.3115,92.5485 92.703,119.1585 59.997,119.1585 Z M59.997,5.0295 C29.775,5.0295 5.187,29.619 5.187,59.8425 C5.187,90.0675 29.775,114.66 59.997,114.66 C90.2205,114.66 114.8115,90.0675 114.8115,59.8425 C114.8115,29.619 90.2205,5.0295 59.997,5.0295 Z"></path>
            <path d="M85.752,68.034 C85.6395,66.5895 85.467,65.166 85.1865,63.774 C84.9735,62.7045 84.699,61.6575 84.3915,60.624 C84.087,59.595 83.7285,58.593 83.334,57.606 C83.0055,56.781 82.638,55.98 82.251,55.1865 C81.849,54.36 81.42,53.5515 80.958,52.7625 C80.5545,52.077 80.16,51.387 79.716,50.733 C79.254,50.0535 78.747,49.4085 78.2415,48.7635 C77.7975,48.195 77.334,47.646 76.8555,47.106 C76.3395,46.524 75.8295,45.9375 75.279,45.39 C74.8005,44.913 74.283,44.4735 73.776,44.0235 C73.2255,43.5345 72.6645,43.0575 72.084,42.603 C71.568,42.198 71.046,41.8005 70.5045,41.424 C69.921,41.0145 69.318,40.6395 68.709,40.2675 C68.16,39.9315 67.6245,39.576 67.0575,39.2685 C66.4425,38.934 65.799,38.652 65.163,38.355 C64.5885,38.0865 64.017,37.818 63.4275,37.5795 C62.7795,37.3185 62.1225,37.0815 61.458,36.8565 C60.8565,36.654 60.2475,36.471 59.6295,36.2985 C58.953,36.1095 58.2765,35.9205 57.5835,35.772 C56.9535,35.6355 56.3115,35.544 55.671,35.4405 C54.96,35.328 54.2595,35.1975 53.5365,35.127 C52.8765,35.0625 52.2015,35.0535 51.5295,35.0265 C51.0195,35.004 50.5155,34.9485 49.9995,34.9485 C49.7595,34.9485 49.53,34.98 49.2885,34.983 C48.5865,34.998 47.892,35.0355 47.2005,35.0895 C46.404,35.1525 45.618,35.2485 44.8365,35.3625 C44.1045,35.469 43.3665,35.5605 42.651,35.709 C41.796,35.8875 40.9665,36.12 40.134,36.3585 C39.3375,36.5865 38.556,36.852 37.782,37.134 C36.8685,37.467 35.9685,37.8285 35.0895,38.232 C34.2225,38.631 33.3645,39.048 32.532,39.513 C31.4985,40.0935 30.4965,40.725 29.5245,41.4 C28.4925,42.12 27.507,42.9 26.556,43.7235 C25.2165,44.883 23.9625,46.137 22.8075,47.481 C17.745,53.3655 14.577,60.9 14.1915,69.159 C14.166,69.7215 14.106,70.275 14.106,70.8435 C14.106,72.1005 14.175,73.3425 14.301,74.5635 C14.43,75.8145 14.631,77.0385 14.8845,78.246 C15.1275,79.4085 15.429,80.5455 15.783,81.6675 C16.0725,82.578 16.4085,83.466 16.7655,84.345 C17.1315,85.242 17.547,86.112 17.979,86.97 C18.351,87.705 18.75,88.4175 19.1685,89.127 C19.611,89.871 20.0655,90.603 20.5575,91.3095 C20.982,91.9215 21.4335,92.517 21.894,93.099 C22.386,93.72 22.908,94.3125 23.4375,94.8945 C23.9085,95.4165 24.375,95.937 24.873,96.429 C25.4055,96.951 25.9665,97.446 26.5305,97.935 C27.0345,98.3715 27.5505,98.787 28.077,99.198 C28.6485,99.6435 29.217,100.089 29.8155,100.4985 C30.3465,100.8615 30.9075,101.181 31.458,101.5155 C32.061,101.8815 32.6625,102.2505 33.2925,102.582 C33.852,102.8775 34.4325,103.1445 35.01,103.4115 C35.643,103.704 36.2865,103.98 36.9375,104.238 C37.53,104.469 38.121,104.6925 38.724,104.892 C39.387,105.114 40.068,105.2985 40.746,105.4845 C41.3655,105.648 41.9745,105.8295 42.603,105.9615 C43.3005,106.1085 44.013,106.1985 44.724,106.305 C45.369,106.3995 46.0095,106.5045 46.6665,106.569 C47.3955,106.6365 48.1365,106.6575 48.879,106.68 C49.254,106.695 49.6215,106.7385 50.001,106.7385 C50.3115,106.7385 50.6115,106.698 50.919,106.689 C51.693,106.668 52.461,106.6425 53.223,106.575 C53.952,106.5105 54.6675,106.3965 55.383,106.2885 C56.2005,106.1655 57.015,106.0365 57.8145,105.855 C58.581,105.6855 59.343,105.489 60.093,105.2655 C60.9825,105.0075 61.848,104.697 62.706,104.3715 C63.5415,104.049 64.362,103.707 65.166,103.329 C66.1395,102.8745 67.0905,102.3795 68.0145,101.841 C68.961,101.2875 69.879,100.698 70.7685,100.065 C71.9325,99.2355 73.0395,98.331 74.097,97.3695 C75.321,96.2535 76.4955,95.076 77.559,93.804 C82.3005,88.1235 85.2855,80.955 85.779,73.1145 C85.827,72.3615 85.8945,71.6115 85.8945,70.8435 C85.8945,69.8955 85.8255,68.964 85.752,68.034 Z M63.873,41.6085 C64.509,41.91 65.139,42.213 65.7525,42.555 L60.726,55.2045 C61.4295,54.9135 62.1945,54.753 62.985,54.6705 L67.3995,43.56 C68.0055,43.9485 68.592,44.3595 69.171,44.7855 L65.22,54.7245 C65.859,54.8355 66.4755,55.005 67.056,55.2555 L70.74,45.9825 C71.3145,46.461 71.859,46.9725 72.399,47.4885 L68.8665,56.376 C69.4125,56.811 69.903,57.3045 70.32,57.864 L73.8495,48.9885 C74.382,49.5705 74.9025,50.163 75.3945,50.7825 L71.5785,60.381 C71.8035,61.125 71.9595,61.899 71.9595,62.715 C71.9595,65.7315 70.302,68.3295 67.8645,69.7335 L67.2195,71.3565 C67.224,71.184 67.245,71.016 67.245,70.8435 C67.245,70.5915 67.2105,70.3455 67.1985,70.0965 C66.1695,70.566 65.0385,70.8435 63.834,70.8435 C59.3415,70.8435 55.7025,67.2045 55.7025,62.715 C55.7025,60.033 57.0165,57.672 59.022,56.19 C58.77,56.0325 58.533,55.851 58.269,55.7085 L63.873,41.6085 Z M60.1665,40.1025 C60.834,40.323 61.491,40.563 62.1375,40.8255 L56.5455,54.8925 C55.9005,54.6285 55.233,54.4125 54.552,54.2265 L60.1665,40.1025 Z M56.2755,39.066 C56.973,39.204 57.6495,39.3885 58.332,39.5685 L52.6665,53.8245 C51.9525,53.715 51.2295,53.643 50.49,53.6235 L56.2755,39.066 Z M52.1745,38.5545 C52.905,38.604 53.628,38.6745 54.345,38.7705 L48.423,53.679 C47.5965,53.754 46.791,53.8965 46.0035,54.084 L52.1745,38.5545 Z M47.8725,38.553 C48.579,38.5065 49.281,38.445 49.9995,38.445 C50.0565,38.445 50.1135,38.454 50.1675,38.454 L43.665,54.816 C42.675,55.209 41.7285,55.6905 40.8375,56.253 L47.8725,38.553 Z M22.6545,53.5455 L18.192,64.77 C18.969,60.708 20.5095,56.922 22.6545,53.5455 Z M17.6295,71.3445 L26.7885,48.2865 C27.873,47.1735 29.04,46.1505 30.2715,45.1995 L18.048,75.966 C17.8065,74.457 17.6535,72.915 17.6295,71.3445 Z M19.782,82.434 C19.389,81.417 19.053,80.3775 18.765,79.317 L33.0915,43.2585 C34.023,42.6855 34.9875,42.1605 35.976,41.682 L19.782,82.434 Z M20.8515,84.8895 L38.445,40.611 C39.3,40.284 40.1655,39.984 41.0535,39.729 L22.1475,87.309 C21.681,86.5245 21.2505,85.719 20.8515,84.8895 Z M23.4045,89.295 L43.338,39.141 C44.1255,38.9745 44.934,38.862 45.7455,38.757 L37.8585,58.6035 C34.7085,61.7265 32.7585,66.057 32.7585,70.8435 C32.7585,71.022 32.7795,71.1945 32.7855,71.3745 L24.8805,91.2675 C24.3615,90.6285 23.8755,89.9715 23.4045,89.295 Z M27.906,94.4715 C27.3495,93.9495 26.8125,93.411 26.2935,92.8515 L33.3255,75.162 C33.594,76.1955 33.951,77.193 34.3965,78.141 L27.906,94.4715 Z M31.1505,97.1415 C30.564,96.72 29.97,96.297 29.412,95.838 L35.589,80.2965 C36.0375,80.979 36.5385,81.621 37.077,82.233 L31.1505,97.1415 Z M34.584,99.33 C33.9585,98.9925 33.3645,98.607 32.7645,98.229 L38.5395,83.7 C39.084,84.186 39.651,84.6495 40.254,85.062 L34.584,99.33 Z M38.226,100.9935 C37.572,100.7355 36.933,100.458 36.3,100.161 L41.9025,86.064 C42.516,86.3925 43.158,86.673 43.8165,86.925 L38.226,100.9935 Z M42.045,102.213 C41.3625,102.0405 40.68,101.868 40.0125,101.6505 L45.6315,87.5085 C46.3155,87.687 47.0145,87.828 47.7255,87.924 L42.045,102.213 Z M46.047,102.9765 C45.3285,102.885 44.6205,102.78 43.917,102.648 L49.7085,88.0695 C49.8075,88.0755 49.9035,88.0875 49.9995,88.0875 C50.6805,88.0875 51.3495,88.038 52.011,87.9615 L46.047,102.9765 Z M50.25,103.2285 C50.1645,103.2285 50.0835,103.2435 49.9995,103.2435 C49.335,103.2435 48.681,103.182 48.027,103.1415 L54.225,87.5475 C55.1205,87.3225 55.9935,87.0405 56.8275,86.6805 L50.25,103.2285 Z M54.6975,102.8595 C53.9175,102.9765 53.1345,103.065 52.3365,103.1235 L59.4315,85.2705 C60.7095,84.432 61.86,83.427 62.8725,82.2915 L54.6975,102.8595 Z M59.4075,101.841 C58.584,102.09 57.744,102.3015 56.8935,102.486 L76.728,52.5705 C77.2215,53.2875 77.67,54.0345 78.1035,54.7905 L59.4075,101.841 Z M64.539,99.7545 C63.6465,100.209 62.733,100.6185 61.794,100.9845 L79.2615,57.027 C79.6905,57.93 80.0745,58.8525 80.418,59.799 L64.539,99.7545 Z M70.317,96.042 C69.321,96.8475 68.2665,97.5795 67.1775,98.2605 L81.318,62.682 C81.6405,63.921 81.894,65.184 82.0695,66.471 L70.317,96.042 Z M81.729,77.2455 L77.4645,87.9765 C76.332,89.775 75.027,91.4535 73.575,92.9985 L82.395,70.8 C82.395,70.815 82.3980069,70.83 82.3980069,70.8435 C82.3995,73.038 82.1565,75.174 81.729,77.2455 Z"></path>
        </g>
    </g>
</svg>