<?xml version="1.0" encoding="UTF-8"?>
<svg width="250px" height="250px" viewBox="0 0 250 250" version="1.1" xmlns="http://www.w3.org/2000/svg" xmlns:xlink="http://www.w3.org/1999/xlink">
    <!-- Generator: Sketch 55.2 (78181) - https://sketchapp.com -->
    <title>organs</title>
    <desc>Created with Sketch.</desc>
    <g id="organs" stroke="none" stroke-width="1" fill="none" fill-rule="evenodd">
        <path d="M168.953219,89.0430335 C171.941805,85.5945071 175.032348,82.0284894 176.55213,77.6432087 C176.670016,77.3034367 176.730553,76.9446121 176.730553,76.5826121 C176.730553,71.0764015 173.815247,66.5863311 169.303693,65.1351559 C165.53132,63.9316646 159.879132,64.8874716 155.319786,71.203419 C155.243319,71.3145594 155.170039,71.428875 155.10313,71.5495418 C155.004559,71.7339158 145.518466,88.7346188 132.584587,86.218282 C134.086646,77.8513982 135.087687,59.0926927 132.277723,52.2269977 C131.372863,50.0454715 129.716078,48.4609276 127.482604,47.6416642 C121.164516,45.3140677 111.669861,50.0264185 110.608881,50.5725941 C109.391781,51.1949802 108.694019,52.5096116 108.862884,53.8623487 C108.875628,53.9744815 109.941786,62.9951087 108.05321,70.822168 L99.4988599,58.4889629 C98.9412879,57.6855769 98.0523586,57.1743312 97.0742179,57.0949454 C85.8080766,56.2502788 79.3657299,65.6432264 77.5273355,70.7620333 C77.1418141,71.8289807 77.3457262,73.0229456 78.0626046,73.9057177 C81.5520098,78.1973229 90.1268704,90.2290599 91.3407844,98.117445 C82.1269064,103.444442 74.3818327,112.58137 75.0389712,128.386718 C76.4886587,163.287964 120.584641,199.729298 122.46127,201.263035 C122.751207,201.501193 123.082564,201.688544 123.43941,201.812386 C123.541366,201.850491 126.972824,203 132.108859,203 C142.441465,203 159.681593,198.344807 170.632308,170.60735 C180.340433,145.99135 178.466991,124.998525 165.059773,108.213157 C162.370683,104.853543 161.809925,100.30949 163.587783,96.3592441 C164.655135,94.0062441 166.742048,91.5960863 168.953219,89.0430335 Z M114.361018,55.0881577 C117.693099,53.7225136 122.053679,52.5743493 124.220991,53.3611136 C124.753086,53.5562055 125.041844,53.824857 125.246247,54.3173842 C127.821349,60.5385404 125.997141,83.873822 124.709285,87.0106858 L122.053679,92.4434783 C119.776054,91.0298609 116.833311,90.546928 113.108649,90.9563014 C112.440084,91.0288614 111.703587,91.1240086 110.947826,91.2283507 L110.947826,78.3680704 C114.867157,70.5228135 114.682222,59.827934 114.361018,55.0881577 Z M83.8173913,71.1821273 C85.1610219,68.5645716 88.4807646,63.5630562 94.3807816,63.2782609 L104.843478,78.6658007 L104.843478,92.5181663 C102.229181,93.1515555 99.444766,94.0197411 96.6538613,95.1565217 C94.447452,85.9602775 86.9440069,75.3226574 83.8173913,71.1821273 Z M159.700875,112.520038 C171.57533,127.359307 173.127087,146.194252 164.314639,168.494446 C151.217297,201.612824 129.476731,197.150244 125.798492,196.111622 C121.037854,192.096888 82.3939896,158.584661 81.1359804,128.378871 C80.5965773,115.423295 87.0257134,107.869267 95.0608865,103.460881 C95.674525,103.325098 96.2426646,103.073979 96.6739079,102.646778 C102.707322,99.7107656 109.406858,98.3662348 114.683951,97.7887597 C118.962458,97.3218563 119.872439,98.4208261 120.696212,100.02799 C120.865636,100.359309 121.100315,100.637625 121.361336,100.886362 C121.388875,100.912566 121.398653,100.948894 121.42739,100.974502 C135.118614,113.187042 139.250247,129.849458 133.704152,150.498021 C133.474262,151.34607 133.311423,151.974961 133.244372,152.356106 C132.918695,154.122081 134.096881,155.815003 135.875335,156.1358 C136.073296,156.173915 136.268064,156.189796 136.462832,156.189796 C138.011396,156.189796 139.390736,155.090826 139.674905,153.5186 C139.725992,153.245446 139.853709,152.791248 140.01974,152.178238 C146.007256,129.893528 141.803184,111.636852 127.585926,97.840175 L129.108947,94.6969147 C129.120721,94.6756736 129.139679,94.6593958 129.151054,94.6379564 C129.441609,94.1285712 129.786444,93.4587872 130.165004,92.6712847 C133.741469,93.5300534 137.149508,93.3579423 140.319874,92.490042 L140.319874,98.4843508 C140.319874,100.282088 141.78223,101.736793 143.58942,101.736793 C145.396611,101.736793 146.858966,100.282088 146.858966,98.4843508 L146.858966,89.6068343 C153.144821,85.7616309 157.955947,79.6341199 160.476754,75.0947151 C162.564921,72.2837663 165.087325,70.9370518 167.06374,71.5722945 C168.708092,72.099546 169.809648,73.9226926 169.956522,76.2889714 C168.746406,79.3063742 166.22081,82.2189619 163.76865,85.0426157 C161.34842,87.8313312 158.841981,90.7185091 157.379625,93.9391896 C154.585823,100.129629 155.476647,107.2507 159.700875,112.520038 Z" fill="#212121" fill-rule="nonzero"></path>
        <circle id="Oval-Copy" stroke="#212121" stroke-width="8" cx="125.5" cy="125.5" r="115.5"></circle>
    </g>
</svg>